<svg width="512px" height="512px" viewBox="0 0 512 512" xmlns="http://www.w3.org/2000/svg" fill="currentColor">
  <title>crunch-exercise</title>
  
  <!-- Head: Shifted forward and up to represent the lifting motion -->
  <circle cx="136" cy="160" r="56"/>
  
  <!-- Body: Side profile of torso curling up and legs bent -->
  <path d="M468.2,425.4 l-73.8-196.8 c-5.8-15.5-24.5-22.3-39.2-14.2 c-1.6,0.9-3.1,2-4.4,3.3 L256,310 c-10,10-25,12-40,5 C186,301,155.6,260.5,125.2,236.4 c-21.4-16.9-52.6-14-70.8,6.2 c-18.9,21-17.5,53.4,3.2,72.6 c28.4,26.3,64.2,56.8,96.4,85.2 c26.9,23.7,63.4,35.6,99.3,32.3 l15.9-1.5 l22.1,59 c5.8,15.5,24.5,22.3,39.2,14.2 c14.7-8.1,20.2-26.9,12.2-42.3 L425,326 l32.2,85.8 c5.8,15.5,24.5,22.3,39.2,14.2 C511.1,417.9,516.6,399.1,508.6,383.7 L468.2,425.4 z"/>
</svg>