<svg version="1.1" xmlns="http://www.w3.org/2000/svg" style="display: block;" viewBox="0 0 2048 2048" width="1024" height="1024">
<path transform="translate(0,0)" fill="rgb(255,255,255)" d="M -0 -0 L 2048 0 L 2048 2048 L -0 2048 L -0 -0 z"/>
<path transform="translate(0,0)" fill="rgb(0,0,0)" d="M 1513.68 8.34456 C 1537.77 6.99941 1559.35 11.5867 1577.77 28.1097 C 1601.75 49.6244 1607.32 76.3372 1605.88 107.377 C 1605.51 115.328 1603.85 123.779 1604.23 131.63 C 1605.87 130.552 1605.26 130.752 1606.94 130.305 C 1608.38 129.918 1607.84 129.903 1609.31 130.817 C 1612.04 132.516 1614.43 135.782 1614.9 139.001 C 1617.01 153.467 1612.8 169.732 1608.32 183.383 C 1606.74 188.202 1604.82 194.318 1601.59 198.257 C 1599.73 200.532 1599.26 200.515 1596.5 200.839 L 1590.38 195.527 L 1585.38 290.775 C 1610.74 311.492 1644.32 323.927 1673.13 339.459 C 1680.23 343.288 1686.76 349.319 1693.81 352.662 C 1698.66 354.962 1706.19 354.855 1711.5 355.94 C 1728.63 359.439 1744.62 368.593 1758.32 379.213 C 1784.45 399.464 1799.71 429.71 1804.26 462 C 1805.6 471.528 1805.92 482.411 1804.19 491.91 C 1803.55 495.456 1801.91 499.834 1801.75 503.325 C 1801.57 507.174 1805.67 515.392 1807.1 519.013 L 1824.99 564.912 C 1830.28 580.67 1833.9 596.945 1835.8 613.461 C 1837.15 625.273 1836.94 638.691 1840.53 649.985 C 1845.15 664.495 1855.07 678.504 1862.25 691.958 C 1885.09 734.751 1898.38 778.162 1902.69 826.524 L 1908.53 917.506 C 1909.35 925.833 1910.29 934.087 1912.29 942.229 C 1913.54 947.325 1915.91 952.898 1916.61 958 C 1917.04 961.079 1915.61 964.86 1914.72 967.761 C 1914.06 969.9 1915.54 973.009 1916.14 975.169 L 1921.61 995.209 C 1925.49 1011.4 1928.14 1028.48 1930.31 1044.97 C 1931.04 1050.46 1932.78 1057.72 1931.74 1063.15 C 1930.48 1069.7 1930.89 1076.84 1930.65 1083.54 C 1930 1101.45 1927.72 1116.35 1921.16 1133.2 C 1918.12 1141.03 1911.5 1160.65 1903.03 1163.72 C 1901.5 1164.27 1899.76 1163.11 1898.34 1162.49 L 1897.5 1162.11 C 1897.04 1166.4 1895.7 1170.53 1894.02 1174.5 C 1891.97 1179.35 1890.06 1183.85 1885 1185.91 C 1881.09 1184.72 1878.8 1185.25 1875 1184.97 C 1872.19 1184.76 1870.63 1183.33 1868.97 1181.23 C 1867.02 1178.76 1865.83 1175.19 1866.32 1172.05 L 1866.66 1170.29 C 1864.43 1170.45 1862.96 1170.34 1861 1169.13 C 1857.51 1166.98 1854.22 1162.86 1853.94 1158.64 C 1853.51 1152.04 1856.85 1143.5 1858.37 1137.09 C 1863.66 1114.73 1871.12 1087.51 1867.41 1064.5 L 1867.15 1063 C 1866.42 1058.48 1864.87 1054.7 1863.11 1050.51 C 1856.44 1067.39 1855.77 1094.46 1842 1106.87 C 1838.6 1107.85 1836.92 1107.97 1833.5 1107 C 1830.98 1104.94 1829.06 1103.28 1828.33 1099.98 C 1826.97 1093.88 1828.66 1086.42 1829.4 1080.27 C 1830.89 1068 1832.1 1055.58 1834.47 1043.46 C 1837.37 1028.57 1841.73 1014.23 1847.55 1000.23 C 1850.48 993.17 1855.05 985.445 1857.03 978.18 C 1857.69 975.748 1857.58 972.987 1857.36 970.5 C 1855.73 952.411 1845.09 931.118 1836.87 915 C 1824.41 890.554 1808.03 868.753 1794.85 844.859 C 1784.49 826.095 1776.75 805.96 1772.24 784.992 C 1769.91 774.156 1768.22 763.479 1767.5 752.415 L 1766.54 726.828 C 1766.4 721.859 1766.86 716.777 1765.21 712 C 1761.02 699.904 1751.48 687.209 1745.18 675.968 C 1730.14 649.114 1716.36 621.766 1706.86 592.402 C 1702.47 607.925 1697.53 623.146 1691.29 638.036 C 1680.93 662.737 1668.3 686.505 1663.18 713.085 C 1660.04 729.4 1660.97 746.38 1661.59 762.904 C 1663.15 804.647 1668.7 846.231 1674 887.635 C 1675.2 896.996 1674.84 907.34 1676.73 916.448 C 1677.84 921.842 1680.56 927.474 1682.25 932.774 L 1694.14 973.183 C 1706.66 1022.6 1713.75 1073.46 1716.77 1124.32 C 1720.89 1193.68 1715.83 1264.26 1702.99 1332.5 L 1692.99 1374.79 C 1690.92 1382.17 1685.78 1392.97 1685.41 1400.39 C 1685.03 1408.17 1687.54 1417.94 1688.41 1425.87 L 1697.2 1500.34 C 1698.4 1509.24 1698.74 1518.68 1700.79 1527.41 C 1706.81 1552.97 1716.42 1576.95 1719.41 1603.38 C 1722.86 1633.94 1725.88 1666.81 1719.1 1697.09 C 1716.26 1709.82 1710.07 1722.02 1708.03 1734.76 C 1705.35 1751.56 1705.21 1769.05 1702.73 1786 C 1698.39 1815.56 1691.57 1845.31 1688.5 1874.96 C 1687.81 1881.65 1687.12 1888.44 1687.73 1895.17 C 1688.48 1903.48 1690.6 1911.66 1691.02 1920 C 1691.51 1929.83 1690.84 1938.6 1688.9 1948.21 C 1697.5 1956.74 1705.41 1967.28 1714.47 1975.05 C 1718.31 1978.35 1723.2 1980.46 1727.41 1983.26 C 1733.52 1987.32 1738.49 1993.03 1743.48 1998.35 C 1748.05 1998.39 1753.43 1998.38 1757.6 2000.47 C 1760.64 2002 1762.26 2003.73 1763.08 2007.14 C 1763.77 2010.04 1763.23 2015 1761.53 2017.48 C 1752.58 2030.57 1700.38 2027.3 1684.01 2031.3 C 1675.26 2033.44 1668.1 2039.75 1659.17 2041.88 L 1657.5 2042.24 C 1655.46 2042.7 1653.6 2043.07 1651.5 2043.19 C 1641.8 2043.75 1633.21 2041.51 1626.02 2034.63 C 1614.93 2024.03 1617.2 2001.41 1619.83 1987.58 C 1622.56 1973.24 1625.88 1960.79 1624.28 1946 C 1623.49 1938.67 1621.38 1930.97 1621.47 1923.63 C 1621.62 1911.2 1626.21 1899.04 1626.81 1886.5 C 1627.89 1864.17 1625.53 1841.51 1623.16 1819.32 C 1620.89 1798.15 1618.51 1776.1 1612.95 1755.5 C 1605.59 1728.24 1589.72 1704.59 1585.59 1676.3 C 1581.06 1645.22 1581.77 1613.11 1587.34 1582.22 L 1595.69 1540.91 C 1597.36 1532.31 1599.6 1523.12 1598.62 1514.36 C 1594.95 1481.43 1585.69 1448.97 1579.74 1416.38 C 1573.62 1382.75 1570.54 1348.69 1562.44 1315.4 L 1543.13 1247.14 C 1532 1205.97 1525.08 1166.37 1523.05 1123.79 C 1522.85 1111.48 1523.83 1097.57 1521.82 1085.5 L 1519 1084.47 L 1517.22 1085.5 C 1514.48 1121.11 1514.55 1155.76 1508.37 1191.19 C 1501.44 1230.85 1488.65 1268.87 1479.35 1307.95 C 1470.32 1345.92 1466.58 1384.07 1460.76 1422.55 C 1457.33 1445.28 1451.4 1467.18 1449.36 1490.24 C 1447.22 1514.31 1447.97 1538.73 1450.76 1562.72 L 1458.3 1613.53 C 1460.36 1631.79 1460.29 1649.68 1458.81 1667.96 C 1457.45 1684.74 1453.8 1701.49 1447.23 1717 C 1442.94 1727.1 1437.85 1737.03 1434.84 1747.6 C 1430.72 1762.06 1428.71 1777.31 1426.63 1792.18 C 1423.15 1817.03 1420.67 1842.44 1419.94 1867.52 C 1419.67 1876.9 1418.88 1887.91 1420.69 1897.12 C 1422.19 1904.76 1425.88 1912.17 1426.2 1920.05 C 1426.51 1927.4 1424.83 1934.76 1424.01 1942.05 C 1423.16 1949.77 1423.21 1957.24 1424.07 1964.96 C 1425.96 1982.04 1432.56 1998.81 1430.4 2016.34 L 1430.16 2018 C 1429.09 2025.83 1426.97 2032.13 1420.75 2037.41 C 1407.68 2048.53 1389.33 2045.97 1374.5 2039.91 C 1367.65 2037.11 1361.7 2033.38 1354.3 2032.03 C 1341.54 2029.69 1327.68 2030.5 1314.7 2029.17 C 1305.83 2028.27 1285.99 2027.41 1280.18 2019.59 C 1277.98 2016.62 1277.53 2013.53 1278.33 2009.98 C 1279.27 2005.78 1281.67 2003.51 1285.16 2001.22 L 1286.24 2000.54 C 1290.3 1997.84 1297.06 1998.63 1301.87 1998.54 C 1307.04 1993.19 1312.37 1987.26 1318.4 1982.88 C 1322.6 1979.85 1327.8 1977.52 1331.5 1973.9 C 1333.91 1971.55 1335.7 1968.54 1337.91 1966 L 1354.83 1948.08 C 1355.62 1944.71 1354.26 1940.08 1353.74 1936.66 C 1352.91 1931.09 1352.55 1925.84 1352.8 1920.21 C 1353.26 1910.19 1355.75 1900.44 1355.83 1890.31 C 1355.98 1870.96 1352.9 1851.55 1350.61 1832.37 C 1347.49 1806.24 1344.72 1779.91 1339.28 1754.13 C 1335.73 1737.3 1330.38 1721.36 1326.24 1704.78 C 1320.28 1680.97 1316.8 1656.31 1316.78 1631.75 C 1316.75 1599.86 1322.74 1569.77 1333.14 1539.68 C 1336.83 1529.01 1341.88 1518.24 1344.79 1507.37 C 1348.8 1492.42 1347.3 1475.16 1349.36 1459.75 C 1351.11 1446.7 1355.16 1434.3 1356 1421.05 C 1357.15 1402.77 1355.4 1382.32 1351 1364.5 C 1348.59 1354.78 1344.82 1345.47 1341.93 1335.9 C 1338.73 1325.28 1336.29 1314.48 1333.96 1303.64 C 1325.33 1263.44 1321.07 1222.91 1320.47 1181.83 C 1319.92 1144.57 1322.34 1107.46 1326.95 1070.5 C 1330.07 1045.53 1333.66 1019.97 1339.79 995.555 L 1353.8 947 C 1356.39 938.924 1360.61 929.833 1361.9 921.5 C 1362.8 915.691 1362.54 909.71 1363.14 903.87 L 1366.65 877.325 L 1371.34 808.824 C 1374.03 777.732 1378.64 747.114 1373.7 715.876 C 1369.78 691.032 1358.18 669.064 1348.7 646.123 C 1341.8 629.451 1336.26 612.211 1331.75 594.75 C 1316.05 629.272 1296 661.434 1281.1 696.255 C 1277.84 703.883 1273.75 711.975 1271.53 719.937 C 1268.42 731.081 1268.7 744.373 1267.65 755.969 C 1265.6 778.614 1261.4 802.535 1253.1 823.811 C 1242.06 852.101 1225.55 876.928 1211.59 903.685 C 1205.31 915.725 1199.99 928.666 1195.31 941.402 C 1191.91 950.64 1188.2 961.093 1186.5 970.799 C 1185.25 977.965 1200.5 1008.83 1202.91 1018.9 L 1203.37 1020.87 C 1205.94 1031.57 1203.75 1041.8 1205.01 1052.5 C 1206.48 1065.04 1209.61 1076.1 1209.7 1089 C 1209.74 1095.31 1208.98 1100.36 1204.5 1104.98 C 1201.66 1106.11 1200.42 1107.24 1197.42 1105.58 C 1186.55 1099.54 1184.8 1066.18 1183.24 1054.44 C 1181.81 1060.38 1179.69 1066.95 1179.13 1073.02 C 1177.35 1092.57 1179.4 1114.36 1180.99 1134 C 1181.68 1142.51 1183.86 1152.49 1182.59 1160.9 C 1181.72 1166.68 1178.53 1170.49 1173.87 1173.73 C 1170.28 1174.31 1170.01 1173.57 1167.03 1171.7 L 1165.58 1172.5 C 1164.68 1177.4 1163.86 1181.46 1160 1184.74 C 1157.25 1185.03 1154.51 1185.34 1151.94 1184.07 C 1140.64 1178.47 1139.03 1164.79 1133.98 1155 C 1132.04 1151.23 1128.73 1147.79 1126.35 1144.19 C 1121.06 1136.18 1117.7 1127.83 1114.5 1118.81 C 1110.83 1108.48 1113.37 1093.36 1113.06 1082.07 C 1112.84 1073.79 1111.54 1065.58 1112.15 1057.28 C 1113.66 1036.66 1120.58 1015.5 1124.97 995.253 C 1128.61 978.474 1130.48 961.573 1132.34 944.52 C 1134.46 925.124 1134.46 905.48 1135.08 886 C 1136.32 847.435 1137.58 806.879 1146.61 769.231 C 1152.41 745.079 1160.65 721.201 1172.02 699.083 C 1178.32 686.818 1186.51 674.418 1191.62 661.692 C 1195.67 651.621 1195.86 637.573 1197.61 626.798 C 1200.18 611.039 1203.46 595.154 1207.88 579.812 C 1213.27 561.11 1219.15 545.043 1228.06 527.81 C 1229.22 525.564 1232.1 521.346 1232.52 518.982 C 1233.43 513.773 1231.91 506.049 1231.57 500.596 C 1230.81 488.193 1230.11 474.857 1231.58 462.502 C 1234.22 440.387 1239.82 419.893 1253.15 401.642 C 1276.19 370.105 1308.24 357.538 1345.5 352.071 C 1351.15 351.242 1355.95 347.36 1360.76 344.414 L 1380.82 333.111 L 1435.5 304.717 C 1442.4 300.75 1448.86 296.087 1455.24 291.348 C 1455.16 280.552 1452.17 202.174 1449.5 198.139 L 1444.5 201.57 C 1443.2 201.081 1443.11 201.124 1441.81 200.219 C 1439.24 198.431 1437.53 194.414 1436.22 191.642 C 1431.03 180.64 1426.99 168.901 1425.64 156.763 C 1424.79 149.077 1424.12 139.044 1429.43 132.788 C 1431.34 130.539 1431.6 130.157 1434.5 129.87 L 1438.5 134.814 C 1440.12 129.62 1438.43 120.87 1438.12 115.344 C 1436.71 89.9859 1438.3 63.5122 1453.94 42.3702 C 1468.69 22.4267 1489.67 12.0127 1513.68 8.34456 z"/>
<path transform="translate(0,0)" fill="rgb(255,255,255)" d="M 1438.09 146.5 L 1439.85 147.047 C 1443.29 162.235 1448.38 175.172 1454.28 189.525 C 1451.31 186.745 1448.65 183.96 1446.29 180.625 C 1439.16 170.54 1435.9 158.723 1438.09 146.5 z"/>
<path transform="translate(0,0)" fill="rgb(255,255,255)" d="M 1518.08 1056.44 L 1535.46 1068.43 C 1532.07 1074.48 1531.17 1075.38 1524.59 1077.31 C 1521.56 1077.3 1512.96 1078.15 1510.5 1076.96 C 1508.74 1076.11 1505.47 1072.16 1503.92 1070.68 L 1518.08 1056.44 z"/>
<path transform="translate(0,0)" fill="rgb(255,255,255)" d="M 1144.24 962.196 C 1152.29 968.072 1160.91 970.928 1170.25 974.103 C 1176.37 993.733 1187.16 1013.68 1187.21 1034.53 L 1179.68 1018.75 C 1178.56 1016.75 1178.81 1016.14 1176.61 1015.52 C 1171.01 1020.89 1170.87 1033.13 1169.41 1040.58 C 1166.92 1053.19 1161.01 1067.26 1160.83 1079.97 C 1160.59 1096.62 1163.31 1115.2 1165.46 1131.71 C 1166.59 1140.34 1170.44 1153.33 1168.68 1161.5 L 1160.31 1117.84 C 1157.91 1104.83 1158.24 1088.94 1159.69 1075.8 C 1159.95 1073.4 1157.47 1068.65 1156.06 1066.5 C 1154.27 1063.76 1153.11 1063.47 1150 1062.86 C 1148.39 1063.32 1147.23 1063.77 1145.93 1064.87 C 1142.53 1067.75 1142.98 1068.67 1142.54 1073 L 1141.83 1072.27 L 1141.61 1071.36 C 1140.66 1067.95 1139.5 1065.3 1136.19 1063.71 C 1133.34 1062.34 1131.91 1062.06 1129 1063.05 C 1128.48 1063.94 1126.85 1066.1 1126.72 1067 C 1126.3 1069.93 1127.27 1074.43 1127.38 1077.5 L 1130.57 1125.5 C 1129.18 1124.49 1129.59 1125.14 1129.21 1123.52 L 1128.75 1121.5 C 1126.65 1113.6 1126.43 1105.59 1126.79 1097.44 C 1126.99 1092.88 1127.96 1087.53 1127.13 1083.05 C 1121.09 1050.32 1134.07 1016.09 1140.93 984.569 C 1142.53 977.242 1143.27 969.626 1144.24 962.196 z"/>
<path transform="translate(0,0)" fill="rgb(255,255,255)" d="M 1897.96 970.5 C 1900.41 970.291 1899.98 970.359 1901.87 971.5 L 1915.35 1034.35 C 1916.73 1041.9 1918.69 1049.5 1919.2 1057.17 C 1919.63 1063.58 1918.29 1070.39 1918.24 1076.9 C 1918.17 1084.28 1918.75 1092.41 1917.23 1099.64 C 1915.95 1105.75 1913.47 1111.84 1911.29 1117.68 C 1910.59 1114.99 1912.51 1108.66 1913.03 1105.69 C 1914.7 1096.32 1917.82 1079.04 1914.5 1070.01 C 1911.76 1068.22 1911.03 1067.85 1907.79 1067.8 C 1906.62 1067.79 1904.75 1068.03 1903.91 1068.97 C 1902.83 1070.17 1902.38 1073.24 1902.09 1074.85 C 1900.48 1083.77 1900.57 1092.98 1898.95 1102 C 1897.15 1112.01 1885.31 1165.85 1879.33 1171.87 C 1880.34 1162.57 1884.91 1153.25 1887.23 1144.14 C 1893.08 1121.15 1897.75 1096.18 1899.38 1072.5 C 1899.21 1071.12 1898.94 1069.82 1898.23 1068.6 C 1896.66 1065.9 1893.06 1063.51 1890 1062.99 C 1887.85 1064.85 1886.81 1065.52 1885.95 1068.33 C 1883.77 1075.43 1880.15 1095.85 1884.03 1102.31 L 1884.58 1103.11 L 1881.92 1106.48 C 1880.3 1108.28 1880.12 1111.67 1879.6 1114.08 L 1875.1 1133.85 C 1872.75 1142.86 1870.16 1151.57 1866.64 1160.19 C 1866.9 1148.61 1872.01 1135.35 1874.62 1123.93 C 1878.16 1108.48 1879.98 1091.8 1880.18 1075.94 C 1880.35 1061.66 1876.27 1048.74 1872.31 1035.16 C 1870.56 1029.16 1868.92 1021.19 1864.5 1016.65 L 1862.5 1017.47 C 1856.37 1028.65 1852.4 1038.72 1848.58 1050.86 L 1847.55 1050.5 L 1871.29 977.508 C 1879.09 973.313 1889.29 971.982 1897.96 970.5 z"/>
<path transform="translate(0,0)" fill="rgb(255,255,255)" d="M 1569.41 195.5 C 1570.26 197.993 1568.46 202.392 1567.63 204.962 C 1564.82 213.735 1561.24 222.535 1559.5 231.6 C 1557.17 243.733 1556.55 256.681 1557.59 268.976 C 1559.2 288.172 1567.25 298.77 1581.57 310.89 C 1580.98 315.117 1578.14 319.49 1576.29 323.322 L 1569.16 340.111 C 1563.27 355.816 1560.69 371.87 1555.63 387.612 L 1552.5 386.762 C 1544.65 382.794 1535.85 381.151 1527.29 379.592 L 1525.99 340.759 L 1527.27 314.361 C 1527.43 304.256 1525.89 294.293 1525.96 284.228 C 1526.05 269.923 1529.94 247.724 1537.15 235.063 C 1541.79 226.909 1549.55 220.362 1555.71 213.349 C 1560.64 207.738 1564.99 201.517 1569.41 195.5 z"/>
<path transform="translate(0,0)" fill="rgb(255,255,255)" d="M 1451.9 315.5 L 1454.21 315.531 C 1458.25 321.639 1460.38 330.883 1462.33 337.971 C 1467.2 355.652 1470.76 373.627 1473.91 391.684 C 1464.86 398.631 1451.67 404.003 1441.52 409.572 L 1417.74 402.707 C 1415.19 402.066 1409.56 401.435 1407.66 400.211 C 1405.94 399.096 1403.67 396.006 1402.18 394.446 L 1364.12 362.771 L 1451.9 315.5 z"/>
<path transform="translate(0,0)" fill="rgb(255,255,255)" d="M 1587.52 314.386 L 1627.41 336.67 L 1656.75 351.212 C 1664.63 355.037 1672.74 358.632 1679.42 364.395 C 1677.69 366.467 1673.31 367.927 1670.83 369.24 C 1659.27 375.346 1650.55 383.379 1641.68 392.861 C 1640.51 394.404 1638.13 398.484 1636.68 399.493 C 1635.98 399.98 1633.31 400.163 1632.31 400.362 L 1617.62 403.404 C 1610.55 404.968 1603.81 406.947 1597.01 409.405 L 1566.41 392.784 C 1567.6 366.563 1578.09 338.714 1587.52 314.386 z"/>
<path transform="translate(0,0)" fill="rgb(255,255,255)" d="M 1469.04 194.746 L 1471.94 199 C 1479.01 209.488 1488.33 217.645 1496.55 227.154 C 1509.05 241.616 1515.24 266.539 1515.38 285.483 C 1515.45 295.329 1513.89 305.161 1514.12 315 L 1515.83 343.29 C 1515.97 355.163 1515.1 367.289 1514.14 379.119 L 1491.02 385.76 C 1488.26 386.873 1486.52 388.316 1483.6 387.367 L 1476.81 359.357 C 1472.18 342.659 1466.2 327.083 1458.97 311.378 C 1465.5 305.356 1472.4 299.162 1477.01 291.5 C 1480.21 286.178 1481.04 280.343 1481.86 274.281 C 1485.55 246.934 1475.92 220.788 1469.04 194.746 z"/>
<path transform="translate(0,0)" fill="rgb(255,255,255)" d="M 1696.65 373.45 L 1703.35 373.842 C 1726.37 376.233 1749.33 392.591 1763.25 410.382 C 1778.61 430.012 1789.61 458.805 1786.35 484 C 1784.56 497.812 1777.9 503.62 1767.53 511.635 L 1757.29 496.991 L 1754.5 493.683 C 1744.94 482.449 1733.18 473.403 1722.66 463.103 L 1692.21 430.569 C 1678.83 417.476 1665.03 407.757 1647.93 400.275 L 1648.58 399.427 C 1661.5 383.778 1676.59 375.587 1696.65 373.45 z"/>
<path transform="translate(0,0)" fill="rgb(255,255,255)" d="M 1722.47 476.997 C 1738.89 491.171 1752.61 505.301 1763.19 524.504 C 1779.38 553.886 1783.86 586.461 1785.7 619.515 C 1786.47 633.376 1787.25 647.265 1785.05 661.044 C 1783.38 671.514 1778.62 680.434 1775.74 690.5 L 1774.41 691.623 L 1754.04 653.411 L 1733.82 608.7 C 1726.56 592.575 1718.41 575.611 1714.92 558.205 C 1713.12 549.251 1712.55 539.888 1712.07 530.783 C 1711.03 510.989 1711.23 493.984 1722.47 476.997 z"/>
<path transform="translate(0,0)" fill="rgb(255,255,255)" d="M 1335.94 373.373 C 1344.47 373.691 1356.93 372.822 1364.46 377.091 C 1375.59 383.396 1384.08 390.734 1393.25 399.661 C 1375.48 405.567 1360.65 415.781 1347.45 429.003 C 1337.06 439.401 1328.05 451.155 1317.54 461.426 C 1307.13 471.592 1295.57 479.774 1283.59 487.913 C 1272.47 495.232 1261.09 502.766 1251.42 511.96 L 1249.6 497.349 C 1245.96 468.053 1251.29 434.236 1269.99 410.626 C 1286.71 389.51 1309.12 376.398 1335.94 373.373 z"/>
<path transform="translate(0,0)" fill="rgb(255,255,255)" d="M 1332.18 490.987 C 1343.3 499.769 1354.63 508.601 1364.63 518.663 C 1388.7 542.892 1407.17 571.246 1424.28 600.611 C 1433.32 616.136 1441.13 632.417 1451.93 646.84 C 1447.66 656.603 1441.86 665.794 1436.5 674.986 L 1414.61 713.46 L 1396.15 750.002 L 1395.73 751.084 C 1394.92 741.926 1393.14 732.202 1390.08 723.513 C 1385.01 709.074 1390.73 693.231 1386.55 678.808 C 1384.08 670.307 1379.41 662.294 1375.63 654.31 C 1370.25 642.922 1365.32 631.229 1361.08 619.373 C 1353.94 599.468 1348.65 578.555 1343.78 558 C 1341.52 548.454 1338.67 538.808 1336.97 529.163 L 1332.18 490.987 z"/>
<path transform="translate(0,0)" fill="rgb(255,255,255)" d="M 1702.4 491.5 C 1703.85 494.121 1700.23 510.472 1699.73 514.357 C 1697.54 531.443 1696.02 548.769 1692.64 565.666 C 1688.4 586.866 1681.68 607.305 1673.7 627.378 L 1659.8 659.079 C 1657.05 665.095 1653.64 671.346 1651.84 677.705 C 1648.77 688.483 1653.08 701.295 1651.66 712.456 C 1650.94 718.036 1648.66 723.103 1647.15 728.474 L 1641.71 751.665 L 1622.4 714.316 L 1586.07 645.72 C 1598.38 631.535 1606.54 613.314 1615.93 597.128 C 1630.49 572.061 1646.7 549.234 1665.32 527.056 C 1676.33 513.928 1687.69 500.656 1702.4 491.5 z"/>
<path transform="translate(0,0)" fill="rgb(255,255,255)" d="M 1205.17 679.5 C 1205.97 680.415 1205.89 681.666 1205.96 682.847 C 1206.42 691.327 1204.66 700.528 1203.42 708.936 L 1198.34 746.476 C 1197.77 751.966 1197.96 757.581 1198.07 763.095 C 1207.01 757.712 1214.39 749.069 1221.79 741.736 C 1233.87 729.772 1245.82 717.652 1259.13 707.039 C 1248.68 750.585 1215.78 781.678 1194.35 819.781 C 1176.73 851.109 1166.78 885.714 1162.87 921.347 C 1162.26 926.873 1160.6 934.643 1162.09 939.981 L 1163.79 940.556 C 1164.43 940.029 1165.24 939.663 1165.7 938.975 C 1167.33 936.541 1168.16 928.612 1168.93 925.5 L 1180.26 881.475 C 1189.47 850.307 1202.7 823.703 1220.5 796.637 L 1251.69 752.485 C 1249.98 780.949 1242.52 808.681 1230.61 834.561 C 1223.28 850.485 1213.61 865.267 1205.03 880.522 C 1190.27 906.737 1177 935.464 1169.51 964.641 C 1160.41 962.083 1152.46 959.008 1145.11 952.889 L 1155.92 845.125 C 1159.19 820.638 1164.42 796.466 1170.29 772.483 C 1176.58 746.753 1183.48 721.296 1195.26 697.435 C 1198.25 691.382 1200.95 684.807 1205.17 679.5 z"/>
<path transform="translate(0,0)" fill="rgb(255,255,255)" d="M 1312.16 478.5 L 1313.89 479.082 C 1319.73 486.527 1320.7 499.499 1321.17 508.802 C 1324.06 565.87 1296.53 618.399 1271.23 667.564 C 1268.92 672.053 1266.65 676.518 1264.76 681.205 C 1263.35 684.692 1262.27 689.319 1259.82 692.192 C 1254.68 698.215 1247.24 703.726 1241.4 709.187 L 1207.12 743.85 C 1210 726.845 1213.94 708.678 1214.91 691.5 C 1215.25 685.612 1215.56 678.869 1214.69 673.074 C 1214.06 668.822 1212.46 664.677 1212.44 660.355 C 1212.26 633.275 1219.87 602.077 1228.65 576.626 C 1237.13 549.238 1251.95 526.524 1272.95 507.189 C 1265.06 524.642 1257.28 542.641 1251.78 561 C 1243.28 589.423 1238.52 619.531 1234.46 648.885 C 1233.58 655.26 1230.52 666.039 1231.83 672.034 C 1245.19 651.022 1247.21 626.068 1251.59 602.055 C 1255.28 581.801 1259.14 560.967 1265.41 541.332 C 1273.82 514.997 1286.82 491.648 1312.16 478.5 z"/>
<path transform="translate(0,0)" fill="rgb(255,255,255)" d="M 1637.7 409.322 L 1646 409.003 C 1651.77 409.671 1658.22 414.19 1662.9 417.519 C 1683.78 432.36 1699.02 451.976 1715.55 471.21 C 1711.06 477.328 1702.88 480.947 1696.4 484.561 C 1690.04 488.108 1684.11 492.115 1678.68 496.981 C 1666.45 507.921 1656.61 520.854 1646.73 533.863 C 1632.33 552.827 1619.24 571.991 1607.08 592.453 L 1581.77 636.584 C 1579.4 631.306 1578.03 625.36 1576.66 619.738 C 1563.7 566.583 1569.12 501.036 1586.35 449.507 C 1589.82 439.134 1593.58 427.783 1599.28 418.427 L 1637.7 409.322 z"/>
<path transform="translate(0,0)" fill="rgb(255,255,255)" d="M 1394.86 409.08 C 1410.37 408.549 1424.74 414.573 1439.43 418.919 C 1441.64 421.205 1442.99 424.119 1444.28 426.995 C 1472.25 489.583 1480.28 574.142 1455.59 638.885 L 1434.9 599.823 C 1414.27 562.549 1388.64 522.908 1355.33 495.644 C 1344.6 486.863 1331.95 481.476 1321.45 472.275 C 1344.49 447.942 1361.55 420.373 1394.86 409.08 z"/>
<path transform="translate(0,0)" fill="rgb(255,255,255)" d="M 1776.14 514.5 L 1777.9 514.202 C 1784.52 520.33 1791 533.532 1795.09 541.616 C 1808.74 568.549 1817.51 595.058 1818.75 625.5 C 1819.26 637.797 1818.32 650.288 1820.44 662.461 C 1821.53 668.716 1823.35 674.742 1825.9 680.552 C 1828.14 685.646 1831.76 691.721 1832.23 697.308 C 1832.64 702.34 1831.34 707.94 1830.99 713 C 1830.41 721.49 1831.58 728.426 1834.22 736.469 C 1836.39 743.081 1842.09 761.564 1848 764.555 L 1849.57 763.588 C 1848.75 750.938 1843.55 738.52 1841.43 725.981 C 1839.36 713.812 1841.13 699.706 1841.68 687.383 C 1849.45 704.623 1857.39 722.623 1863.25 740.615 C 1874.68 775.661 1882.06 813.703 1886.6 850.337 L 1891.97 906 C 1894.26 924.566 1897.96 942.352 1902.28 960.518 L 1892.26 962.465 L 1873.73 965.525 C 1871.22 953.415 1865.59 940.75 1860.66 929.432 C 1849.58 903.963 1834.71 882.527 1820.09 859.201 C 1806.27 837.162 1794.02 810.938 1788.08 785.627 C 1784.83 771.79 1783.6 757.536 1782.62 743.388 C 1788.57 750.194 1792.86 759.418 1797.95 767 C 1820.73 800.905 1843.99 833.604 1858.68 872.156 C 1870.14 902.252 1877.61 934.106 1891.68 963.219 C 1891.04 952.501 1887.56 940.601 1885.32 929.988 C 1879.48 902.351 1872.29 874.03 1861.11 848.032 C 1852.34 827.611 1840.33 807.609 1827.63 789.402 L 1806 760.299 C 1800.16 752.846 1793.48 745.21 1789.29 736.683 C 1783.39 724.691 1782.77 713.526 1781.98 700.468 C 1789.21 713.608 1795.93 724.603 1806.65 735.3 C 1810.34 738.988 1813.75 742.602 1818.5 744.902 C 1821.23 744.836 1823.28 745.477 1825.29 743.5 C 1822.92 738.616 1817.97 734.682 1814.32 730.686 C 1805.91 721.48 1798.14 711.555 1790.69 701.557 C 1789.18 699.53 1785.07 694.745 1784.47 692.3 C 1783.97 690.253 1787.22 680.714 1787.79 678.21 C 1790.89 664.592 1793.07 651.383 1793.85 637.439 C 1795.5 607.578 1792.24 573.653 1782.59 545.253 C 1779.42 535.921 1774.19 527.286 1771.21 518 L 1776.14 514.5 z"/>
<path transform="translate(0,0)" fill="rgb(255,255,255)" d="M 1578.04 1078.4 L 1616.42 1079.07 L 1627.34 1154.54 C 1632.69 1193.26 1636.26 1229.8 1628.69 1268.57 C 1623.44 1295.42 1611.41 1321.19 1607.36 1348 C 1603.65 1372.56 1610.58 1397.01 1599.07 1420.04 C 1595.9 1406.05 1594.79 1391.23 1592.98 1377 L 1583 1317 C 1576.39 1286.67 1565.96 1257.42 1557.99 1227.46 C 1546.5 1184.23 1542.85 1143 1542.94 1098.49 C 1553.89 1087.25 1561.44 1079.43 1578.04 1078.4 z"/>
<path transform="translate(0,0)" fill="rgb(255,255,255)" d="M 1449.64 1078.43 L 1458.05 1078.2 C 1466.39 1078.58 1476.29 1080.68 1483.04 1085.72 C 1487.69 1089.2 1491.7 1094.24 1495.62 1098.52 C 1497.16 1146.75 1490.24 1192.43 1478.13 1239 L 1458.5 1311.93 C 1451.06 1344.3 1448.18 1376.95 1442.73 1409.59 L 1439.62 1422.79 C 1435.67 1414.44 1432 1403.73 1430.98 1394.54 C 1429.27 1379.08 1430.8 1363.39 1428.32 1347.92 C 1424.05 1321.28 1413.86 1295.74 1409.39 1268.92 C 1398.9 1206.07 1413.84 1141.68 1422.93 1079.5 L 1449.64 1078.43 z"/>
<path transform="translate(0,0)" fill="rgb(255,255,255)" d="M 1417.73 868.209 C 1428.51 868.097 1437.22 867.88 1447.47 872.296 C 1472.22 882.955 1492.33 909.279 1502.28 933.791 C 1507.88 947.592 1510.24 961.685 1511.91 976.385 C 1513.71 992.266 1514.76 1009.32 1508.03 1024.22 C 1499.45 1043.21 1484.14 1055.92 1464.83 1063.07 C 1452.71 1066.8 1432.6 1072.06 1420.22 1068.68 C 1406.94 1059.97 1400.5 1035.04 1396.38 1020.58 C 1390.25 999.05 1388.31 977.575 1383.86 955.792 L 1378.47 932.659 C 1377.74 929.755 1375.78 924.692 1375.82 921.79 C 1375.84 920.257 1377.75 916.952 1378.37 915.299 C 1381.49 907.009 1384.44 898.779 1388.89 891.075 C 1395.88 878.962 1404.14 871.882 1417.73 868.209 z"/>
<path transform="translate(0,0)" fill="rgb(255,255,255)" d="M 1609.06 868.202 C 1615.59 867.867 1621.98 867.767 1628.33 869.616 C 1642.97 873.877 1651.77 887.161 1656.32 900.921 C 1658.23 906.691 1659.55 913.77 1662.55 918.98 C 1662.89 919.559 1663.39 920.059 1663.58 920.697 C 1663.73 921.177 1662.92 924.344 1662.82 924.896 L 1660.11 939.686 L 1650.84 996.955 C 1647.55 1015.7 1641.22 1039.25 1631.84 1055.84 C 1629.49 1059.99 1626.25 1065.12 1622.2 1067.71 C 1613.92 1073 1595.54 1068.43 1586.5 1066.76 C 1577.31 1064.69 1568.05 1062.34 1560.1 1057.08 C 1543.98 1046.42 1531.57 1029.17 1527.9 1010.02 C 1526.5 1002.75 1526.75 995.213 1526.9 987.836 C 1527.48 960.093 1534.74 933.111 1550.45 910.046 C 1564.03 890.105 1584.96 872.798 1609.06 868.202 z"/>
<path transform="translate(0,0)" fill="rgb(255,255,255)" d="M 1528.02 389.907 C 1550.06 394.023 1569.61 405.289 1589.4 415.249 C 1571.67 453.474 1563.19 492.127 1560.47 534.111 C 1558.42 565.861 1559.7 601.195 1570.03 631.5 C 1576.71 651.105 1588.04 670.574 1598.18 688.61 L 1623.72 736.093 C 1634.25 756.139 1644.46 776.778 1649.45 799.011 C 1654.87 823.159 1651.11 848.498 1651.02 873.026 C 1644.36 867.686 1639.56 864.171 1631.25 861.747 C 1630.79 861.612 1630.23 861.66 1629.86 861.35 C 1628.45 860.177 1626.06 852.396 1624.82 850.188 C 1618.46 838.859 1607.48 829.914 1597.59 821.796 L 1604.87 833.336 C 1610.63 841.477 1615.17 849.615 1619.24 858.723 C 1610.49 858.915 1602.25 859.892 1594 862.939 C 1558.97 875.878 1538.23 907.786 1523.5 940.092 L 1523.91 835.76 L 1523.95 809.536 C 1523.95 807.218 1523.35 802.605 1523.96 800.5 C 1524.21 799.597 1525.39 798.265 1526 797.543 C 1527.59 795.662 1526.96 792.464 1526.99 790 C 1525.9 788.727 1524.4 787.286 1524.11 785.553 C 1522.55 776.127 1524.01 763.875 1524.01 754.208 L 1524.02 674 C 1524.93 672.899 1526.75 670.936 1527 669.5 C 1527.22 668.251 1527.16 663.192 1526.83 662 C 1526.54 660.921 1524.24 659.567 1523.98 658.5 C 1522.8 653.727 1524.02 645.777 1524.29 640.718 L 1528.7 561 L 1527.73 518 L 1528.02 389.907 z"/>
<path transform="translate(0,0)" fill="rgb(255,255,255)" d="M 1506.81 391.5 C 1508.91 391.016 1510.06 391 1512.16 391.5 C 1513.73 409.078 1513.08 427.359 1513.14 445.022 L 1512.24 561.224 L 1515.98 648.608 C 1516.16 655.919 1512.73 661.881 1513.1 669 L 1514.27 670.69 C 1515.32 672.424 1515.76 673.786 1515.91 675.803 C 1517.56 698.101 1516.28 721.497 1516.35 743.903 L 1516.39 771.681 C 1516.36 776.344 1516.86 781.942 1515.76 786.433 C 1514.51 791.553 1515.64 795.144 1515.92 800.207 L 1516.23 818.512 L 1516.12 941.857 C 1507.65 918.77 1496.6 899.644 1478.52 882.613 C 1460.36 865.501 1442.12 858.183 1417.1 858.866 C 1416.98 857.354 1418.24 855.808 1418.96 854.493 C 1422.59 847.899 1426.56 841.72 1430.84 835.539 L 1438.57 823.426 C 1427.52 830.881 1417.24 839.797 1411.25 851.915 C 1410.06 854.33 1408.46 859.722 1406.78 861.544 C 1405.41 863.038 1400.65 864.834 1398.75 865.961 C 1394.69 868.358 1391.16 871.319 1387.56 874.334 C 1386.95 848.621 1385.83 821.401 1390.2 795.97 C 1393.86 774.684 1402.67 756.084 1412.46 737.06 L 1440.03 686.671 C 1449.93 669.315 1462.13 650.983 1468.68 632.094 C 1477.14 607.726 1479.94 581.268 1480.03 555.585 C 1480.22 506.113 1471.02 460.779 1449.18 416.323 C 1465.64 405.003 1487.55 396.487 1506.81 391.5 z"/>
<path transform="translate(0,0)" fill="rgb(255,255,255)" d="M 1670.58 959.942 C 1682.79 997.53 1688.66 1035.07 1693.05 1074.25 C 1698.76 1125.15 1700.8 1177.06 1697.05 1228.18 C 1695.16 1253.97 1691.26 1279.84 1687.36 1305.39 C 1683.8 1328.65 1681.15 1355.8 1671.96 1377.46 C 1668.94 1353.05 1672.33 1327.75 1674.21 1303.35 C 1666.52 1314.63 1661.9 1327.07 1660.51 1340.69 C 1659.26 1352.81 1660.99 1364.4 1662.32 1376.4 L 1667.7 1423 L 1673.05 1488.5 C 1664.85 1476.39 1654.79 1467.13 1643.69 1457.81 C 1646.39 1464.06 1648.96 1470.59 1652.35 1476.5 C 1657.81 1486 1664.22 1494.85 1669.2 1504.65 C 1676.9 1519.77 1682.04 1536.16 1687.36 1552.23 C 1690.82 1562.66 1694.9 1573.04 1697.71 1583.66 C 1706.2 1615.78 1707.19 1657.55 1700.13 1690.25 C 1697.79 1701.06 1692.61 1711.4 1690.87 1722.17 C 1687.93 1740.34 1688.13 1759.28 1685.57 1777.65 C 1680.76 1812.09 1670.1 1847.28 1670.07 1882.07 C 1670.05 1897.18 1673.01 1911.28 1674.67 1926.17 C 1675.16 1930.51 1675.34 1935.32 1672.5 1938.93 L 1669.83 1938.29 C 1667.89 1936.49 1666.39 1935.57 1665.7 1932.85 C 1664.19 1926.83 1665.37 1918.13 1665.52 1911.87 L 1667.22 1863.1 C 1667.9 1852.98 1674.39 1810.82 1672.02 1805.5 L 1668 1804.36 C 1667.45 1804.95 1666.65 1805.39 1666.34 1806.13 C 1665.37 1808.49 1665.36 1813.36 1665 1816 L 1661.25 1842.15 L 1652.14 1890.77 L 1647.37 1936.21 L 1645.5 1937.19 C 1637.33 1932.79 1638.89 1926.94 1640.41 1919.07 C 1642.29 1909.28 1644.59 1899.49 1645.27 1889.53 C 1648.31 1845.03 1638.42 1799.9 1633.66 1755.86 C 1632.7 1746.98 1633.33 1737.95 1632.64 1729.04 C 1630.74 1704.65 1626.61 1677.77 1619.57 1654.32 C 1617.13 1674.08 1618.7 1693.48 1619.02 1713.28 C 1604.73 1682.74 1600.72 1647.94 1603.29 1614.55 C 1605.03 1591.93 1610.26 1569.78 1614.16 1547.49 L 1618.56 1513.08 C 1621.7 1523.71 1622.66 1535.99 1623.34 1547.03 C 1624.6 1567.25 1624.49 1585.55 1620.51 1605.5 L 1622 1606.68 L 1625.22 1605.22 C 1628.91 1599.28 1629.9 1592.06 1630.98 1585.25 C 1633.54 1568.97 1633.83 1552 1632.87 1535.53 C 1632.25 1525.08 1630.37 1514.47 1631.42 1504 C 1633.07 1487.66 1640.45 1472.34 1641.67 1456.27 L 1639.93 1455.71 C 1627.54 1463.93 1622.17 1482.03 1616.66 1495.15 L 1606.8 1452.11 C 1606.05 1448.77 1603.7 1441.31 1604.24 1438.23 C 1604.7 1435.59 1609.79 1429.81 1611.27 1427.11 C 1614.07 1422.01 1616 1416.29 1617.22 1410.61 C 1621.79 1389.16 1616.63 1366.43 1619.75 1344.69 C 1624.95 1308.57 1640.02 1275.44 1642.48 1238.6 C 1644.53 1208.04 1640.52 1177.47 1636.05 1147.3 L 1625.28 1078.23 C 1637.89 1066.2 1643.83 1052.72 1649.8 1036.64 C 1659.03 1011.77 1664.3 985.663 1670.58 959.942 z"/>
<path transform="translate(0,0)" fill="rgb(255,255,255)" d="M 1370.03 960.252 L 1387.06 1023.16 C 1393.18 1042.77 1398.83 1061.15 1414.01 1075.65 C 1408.7 1129.6 1393.67 1181.35 1396.44 1236.22 C 1397.34 1254.19 1399.8 1271.99 1403.7 1289.55 C 1407.87 1308.27 1413.44 1326.25 1416.23 1345.33 C 1419.08 1364.87 1415.43 1385.32 1420.14 1404.64 C 1421.98 1412.2 1425.01 1419.27 1428.91 1426 C 1430.65 1429 1436.21 1435.98 1436.78 1438.85 C 1436.97 1439.78 1435.72 1443.09 1435.42 1444.14 L 1429.5 1463.48 L 1420.26 1499.53 C 1413.22 1490.69 1410.8 1472.65 1408.14 1461.96 C 1407.32 1458.65 1406.8 1454.2 1404.64 1451.5 L 1402.74 1452.5 C 1400.35 1458.2 1401.11 1463.84 1401.94 1469.79 C 1402.8 1475.87 1403.67 1482.05 1405.36 1487.96 C 1407.38 1495.03 1410.44 1502.42 1411.58 1509.65 C 1413.27 1520.34 1411.69 1531.61 1410.71 1542.33 C 1409.54 1555.14 1408.72 1567.89 1408.72 1580.76 C 1408.72 1586.51 1408.3 1593.16 1409.69 1598.73 C 1410.56 1602.19 1411.39 1604.37 1414.5 1606.21 L 1416.5 1605.52 C 1415.63 1580.61 1419.97 1556.68 1424.71 1532.34 C 1426.69 1522.15 1428.09 1511.7 1430.95 1501.72 C 1430.4 1521.02 1430.18 1540.8 1432.11 1560 C 1434.6 1584.83 1439.67 1609.29 1440.61 1634.29 C 1441.56 1659.59 1436.85 1687.56 1427.89 1711.22 L 1426.57 1661.44 C 1420.94 1680.13 1417.29 1700.15 1415.17 1719.56 L 1411.81 1757.99 C 1407.5 1793.58 1401.61 1829.23 1400.58 1865.11 C 1400.34 1873.26 1400.22 1881.38 1401.03 1889.5 C 1402.25 1901.71 1405.88 1913.89 1406.57 1926.06 C 1406.75 1929.35 1407 1932.35 1405.27 1935.27 C 1403.32 1936.39 1402.32 1936.67 1400.01 1936.84 C 1396.9 1937.07 1394.68 1937.61 1392.25 1935.5 C 1392.13 1925.18 1390.78 1915.42 1389.15 1905.23 L 1381.65 1838.94 L 1379.66 1817.65 C 1379.28 1813.25 1379.34 1808.57 1377.5 1804.51 C 1375.35 1804.95 1374.53 1805.97 1373.03 1807.5 L 1373.12 1808.32 L 1376.93 1865.69 C 1377.85 1879.32 1384.46 1929.25 1376.84 1938.76 C 1373.72 1938.75 1373.91 1938.67 1371.62 1936.5 C 1369.15 1930.52 1370.04 1923.68 1370.63 1917.38 C 1371.51 1908.04 1372.82 1898.86 1372.98 1889.46 C 1373.17 1878.44 1372.43 1867.63 1371.39 1856.67 L 1365.47 1807.36 C 1363.36 1789.58 1361.64 1771.72 1358.15 1754.13 C 1354.23 1734.37 1347.88 1715.53 1343.29 1696 C 1334.74 1659.62 1333.95 1621.97 1340.46 1585.21 C 1343.91 1565.74 1350.69 1546.09 1359.57 1528.47 C 1371.16 1505.47 1385.23 1484.86 1394.19 1460.51 C 1381.4 1467.28 1373.73 1478.8 1365.19 1490.08 L 1386.36 1352.88 C 1387.54 1338.81 1385.15 1318.28 1375.83 1307.19 L 1374.14 1307.19 L 1373.33 1309.5 C 1377.75 1328.73 1376.21 1348.7 1373.16 1367.95 L 1372.74 1367.21 C 1370.38 1362.47 1369.24 1356.25 1367.76 1351.14 L 1360.08 1325.28 C 1353.36 1300.92 1347.55 1277.02 1344.42 1251.91 C 1336.83 1191.08 1339.26 1128.69 1346.97 1068 C 1351.66 1031.04 1357.59 995.507 1370.03 960.252 z"/>
<path transform="translate(0,0)" fill="rgb(0,0,0)" d="M 1393.21 1881.5 L 1394.94 1881.61 C 1400.14 1888.7 1399.42 1909.62 1398.89 1918.5 L 1397.02 1918.83 L 1395.4 1917.66 C 1393.79 1906.1 1391.45 1893.07 1393.21 1881.5 z"/>
<path transform="translate(0,0)" fill="rgb(0,0,0)" d="M 520.669 11.3609 L 526.5 11.1211 C 553.032 11.4549 577.794 22.4699 595.636 41.9802 C 619.561 68.1419 615.848 98.268 614.334 130.722 C 615.686 130.273 616.699 130.092 618.151 130.366 C 621.451 130.988 623.742 133.09 625.505 135.84 C 632.419 146.63 626.686 159.438 623.964 170.611 C 622.701 175.795 622.047 181.134 621.018 186.368 C 619.864 192.242 616.886 199.85 611.62 203.162 L 610 204.146 C 608.027 205.702 606.696 215.765 605.924 218.5 C 603.976 225.398 600.143 231.717 598.312 238.545 C 596.819 244.114 596.765 250.788 596.422 256.549 L 594.878 288.353 L 664.831 327.267 C 678.441 334.935 691.595 344.304 705.423 351.398 C 707.371 352.398 708.905 352.833 711.084 352.968 C 720.033 353.519 728.626 355.483 737.145 358.218 C 772.221 369.479 801.232 396.952 812.668 432.123 C 818.346 449.584 819.461 467.959 818.963 486.178 C 818.652 497.546 813.887 515.864 818.975 525.607 C 829.253 545.287 836.301 566.777 841.299 588.366 L 847.358 620.366 L 850.583 644.059 C 851.043 649.124 850.199 653.974 853.099 658.434 L 880.832 706.479 C 893.039 730.781 902.948 756.409 907.561 783.311 C 916.738 836.83 910.792 891.251 916.31 944.906 C 918.323 964.481 920.643 983.731 925.044 1002.95 C 929.053 1020.46 935.521 1038.51 936.841 1056.5 C 937.51 1065.61 935.911 1074.66 935.878 1083.77 C 935.846 1092.67 937.426 1102.4 936.537 1111.09 C 936.159 1114.8 934.989 1118.44 933.817 1121.96 C 931.28 1129.57 927.94 1137.51 923.723 1144.34 C 921.366 1148.16 918.218 1151.59 916.084 1155.5 C 912.357 1162.33 910.73 1169.34 905.681 1175.6 C 902.341 1179.74 898.225 1182.65 893.5 1185 C 890.167 1184.82 888.214 1184.97 885.589 1182.5 C 883.254 1180.31 883.012 1177.34 882.824 1174.33 L 882.772 1173.25 C 879.354 1173.78 877.516 1173.98 874.5 1171.98 C 871.647 1170.08 869.628 1166.31 869.125 1163 C 867.339 1151.27 870.51 1137.24 871.496 1125.43 C 872.768 1110.19 873.606 1093.79 873.023 1078.5 C 872.644 1068.53 868.911 1058.17 866.081 1048.68 L 865.542 1048.46 C 862.504 1056.85 860.736 1064.73 859.455 1073.54 C 858.266 1081.73 857.755 1090.19 854.186 1097.81 C 852.767 1100.84 850.454 1104.39 847 1105.26 C 844.997 1105.77 843.965 1105.6 842.14 1104.74 C 827.129 1097.59 839.395 1061.14 841.262 1048.81 C 842.901 1037.99 842.98 1027.18 846.278 1016.64 C 849.833 1005.27 855.2 994.235 859.262 983 C 860.725 978.953 863.432 973.275 863.156 968.932 C 862.674 961.349 859.545 953.149 857.128 946 C 849.69 924 839.589 903.122 827.892 883.086 C 812.846 857.315 796.313 832.706 786.68 804.137 C 779.977 784.256 778.112 763.695 777.569 742.851 C 777.329 733.687 777.75 724.008 776.317 714.947 C 774.903 706.012 771.826 697.598 769.136 689 C 764.99 675.746 753.865 663.381 747.216 651.021 C 736.497 631.099 729.876 608.72 723.93 586.987 C 721.86 592.823 721.124 599.533 719.583 605.582 C 717.57 613.485 714.607 620.867 711.354 628.326 C 705.551 641.634 698.55 654.349 691.474 667.012 C 687.418 674.27 682.768 681.528 679.673 689.263 C 673.192 705.464 671.325 722.745 670.932 740.069 C 670.11 776.301 679.024 810.795 674.484 847.29 C 673.323 856.625 677.323 866.236 679.862 875.162 L 689.419 909.505 L 721.908 1029.35 C 730.689 1067.8 737.035 1108.57 738.626 1148.02 C 739.578 1171.63 737.24 1195.53 735.141 1219.03 C 732.261 1251.26 729.173 1284.43 720.735 1315.74 L 703.218 1377.87 C 700.558 1387.37 696.679 1397.12 695.714 1407.01 C 695.297 1411.28 696.478 1416.4 697.046 1420.66 L 700.465 1448.25 C 701.55 1460.48 699.035 1474.41 702.686 1486.11 C 707.488 1501.5 710.678 1517.63 714.559 1533.29 C 721.362 1560.75 728.906 1589.08 730.768 1617.4 C 732.074 1637.27 730.167 1657.5 726.429 1677 C 721.188 1704.35 711.892 1730.12 708.17 1757.96 C 702.282 1801.99 701.46 1847.31 690.312 1890.46 C 694.911 1897.04 700.303 1903.99 702.337 1911.86 C 703.921 1917.99 704.23 1924.41 705.991 1930.49 C 708.253 1938.32 713.557 1944.38 718.661 1950.5 C 723.934 1956.83 729.307 1963.44 735.325 1969.06 C 742.971 1976.21 751.807 1982.22 760.02 1988.7 C 768.013 1995.01 782.495 2001.8 787.837 2010.23 C 789.383 2012.66 789.845 2016.39 788.888 2019.15 C 788.168 2021.22 786.386 2022.91 784.353 2023.61 C 781.626 2024.56 780.373 2024.9 778.375 2027.13 L 776.5 2029.22 C 773.835 2031.67 771.796 2030.95 768.5 2030.67 C 767.24 2032.41 765.908 2034.4 763.906 2035.36 C 760.402 2037.04 755.979 2036.44 752.4 2035.42 L 751.5 2035.15 C 750.168 2037.36 748.728 2039.44 746.661 2041.03 C 743.975 2043.1 739.795 2044.27 736.429 2043.74 C 730.71 2042.84 724.968 2045.08 719.094 2045.12 C 708.705 2045.19 694.042 2040.27 686.71 2032.5 C 682.433 2027.97 679.193 2021.36 673.104 2018.98 C 669.037 2017.39 663.825 2017.38 659.5 2017 C 647.246 2015.95 635.211 2015.02 626.11 2005.5 C 622.054 2001.26 619.619 1996.12 619.617 1990.23 C 619.611 1978.03 625.767 1966.41 626.572 1954.11 C 627.162 1945.1 626.859 1935.78 625.146 1926.9 C 624.103 1921.49 622.023 1916.06 622.2 1910.5 C 622.454 1902.55 628.346 1896.32 628.866 1889 C 629.774 1876.23 628.548 1862.41 628.233 1849.56 L 625.512 1788.55 C 624.784 1779.34 624.447 1769.98 622.63 1760.9 C 620.524 1750.38 616.471 1740.71 612.466 1730.82 C 594.394 1686.19 591.006 1637.74 596.457 1590.22 L 602.503 1542.74 C 603.931 1526.03 603.591 1507.49 601.824 1490.86 C 600.85 1481.7 597.187 1473.51 594.351 1464.85 C 591.627 1456.53 589.985 1447.82 588.854 1439.15 L 583.017 1372 L 563.277 1238.81 L 542.112 1135.97 L 528.393 1070.05 L 526.72 1064.08 C 524.756 1067.47 524.354 1072.37 523.6 1076.22 L 518.775 1100 L 491.069 1239.5 L 477.544 1330.44 L 470.633 1375.23 C 468.22 1395.51 469.433 1416.01 466.184 1436.35 C 464.434 1447.3 461.744 1457.75 458.422 1468.32 C 456.272 1475.16 451.92 1483.14 451.472 1490.23 C 450.429 1506.74 449.957 1524.72 451.376 1541.22 L 457.068 1585.12 C 460.018 1609.86 461.483 1634.14 458.921 1659 C 456.746 1680.12 451.157 1702.58 443.232 1722.3 C 438.103 1735.06 431.48 1747.88 428.195 1761.25 C 425.518 1772.13 425.691 1784.9 424.98 1796.11 L 421.629 1885 C 421.417 1892.17 425.251 1897.38 427.197 1904.04 C 430.361 1914.87 426.707 1921.46 425.312 1932.09 C 424.378 1939.21 424.618 1947.66 425.178 1954.82 C 426.462 1971.22 437.838 1986.75 428.838 2002.58 C 420.536 2017.19 403.407 2016.25 388.995 2018.21 C 386.861 2018.49 381.169 2019.44 379.546 2020.67 C 378.432 2021.52 377.168 2023.96 376.232 2025.21 C 369.741 2033.91 365.121 2037.35 354.666 2040.35 C 344.743 2043.2 329.914 2046.4 320.612 2041.12 L 317.718 2039.5 L 316.5 2038.8 L 313.5 2040.97 C 309.463 2039.83 300.249 2038.38 297.5 2035.37 C 296.362 2034.12 295.378 2031.71 294.5 2030.2 C 292.479 2031.11 290.679 2031.52 288.5 2031.91 C 284.373 2030.14 283.658 2029.1 280.875 2025.5 L 277.318 2025.22 C 273.259 2024.77 270.403 2022.97 268.102 2019.5 C 265.753 2015.96 265.871 2011.62 267.773 2007.92 C 270.764 2002.11 279.231 1999.27 284.5 1995.85 C 289.16 1992.82 293.585 1989.27 297.886 1985.75 C 314.119 1972.5 334.748 1952.97 344.381 1934.14 C 348.116 1926.84 349.384 1918.2 352.232 1910.5 C 354.707 1903.81 361.393 1896.66 361.292 1889.55 C 360.993 1868.68 357.422 1847.15 355.171 1826.39 C 351.987 1797.04 349.889 1766.75 344.094 1737.81 C 341.702 1725.87 336.056 1714.75 332.854 1703 C 324.4 1671.96 321.536 1636.41 324.396 1604.44 C 328.017 1563.98 341.654 1525.13 353.344 1486.5 C 355.64 1478.91 354.874 1471.32 354.728 1463.49 C 354.54 1453.47 354.498 1443.28 355.244 1433.29 C 355.868 1424.94 357.178 1416.57 358.684 1408.35 C 359.315 1404.9 360.824 1400.34 360.864 1396.92 C 360.875 1395.99 359.378 1393.17 359.003 1392.21 L 353.341 1377.54 C 348.106 1362.81 343.651 1347.4 339.961 1332.22 C 321.904 1257.92 317.037 1181.34 324.807 1105.29 C 328.891 1065.32 336.232 1024.49 346.029 985.5 L 371.876 893 L 378.661 868.892 C 379.423 866.018 380.594 862.755 380.01 859.768 C 375.533 836.873 377.573 813.388 380.709 790.453 C 383.705 768.543 387.693 747.228 384.679 725.035 C 381.433 701.135 371.363 675.827 360.464 654.354 C 356.768 647.071 351.909 640.37 347.98 633.191 C 340.882 620.222 335.728 606.232 331.186 592.199 C 324.965 609.248 318.519 626.584 310.688 642.953 C 303.713 657.534 294.187 671.228 287.685 685.866 C 284.432 693.189 283.47 701.262 281.148 708.862 C 279.84 713.144 277.211 716.99 276.005 721.285 C 274.093 728.096 275.212 737.19 274.704 744.357 C 272.951 769.098 270.15 792.759 260.991 816 C 252.672 837.109 239.282 855.989 227.675 875.361 C 213.612 898.832 202.134 922.993 193.404 948.966 C 191.287 955.266 189.407 961.646 188.1 968.168 C 187.808 969.623 186.91 972.328 187.097 973.639 C 187.399 975.748 191.168 981.107 192.311 983.43 C 201.159 1001.41 209.354 1023.92 212.369 1043.8 C 214.154 1055.56 214.009 1067.64 213.908 1079.51 C 213.849 1086.48 214.455 1095.09 211.928 1101.67 C 211.062 1103.93 209.194 1106.96 206.829 1107.76 C 204.433 1108.58 201.768 1108.52 199.451 1107.44 C 185.635 1101 188.097 1070.73 182.832 1058.09 C 173.527 1067.54 184.678 1121.75 187.168 1135.5 C 188.517 1142.95 193.314 1155.54 190.516 1162.65 C 189.057 1166.36 184.162 1171.17 180.409 1172.4 L 178.5 1172.94 L 177.255 1175.5 L 176.74 1177.39 C 175.677 1180.99 172.009 1184.4 168.67 1185.98 C 165.341 1187.56 162.27 1187.42 158.871 1186.31 C 153.253 1182.16 151.504 1171.5 149 1165.19 L 147 1165.74 C 140.739 1163.99 138.704 1160.32 135.625 1154.94 C 118.358 1124.79 114.225 1093.79 114.742 1059.57 C 114.861 1051.64 117.03 1043.07 118.359 1035.21 L 126.68 990.166 C 128.103 983.607 130.469 976.667 131.15 970.052 C 131.593 965.744 128.822 961.585 129.281 957.123 C 130.513 945.137 135.055 933.526 136.194 921.263 C 141.287 866.431 138.694 808.46 154.961 755.383 C 161.194 735.044 169.687 715.176 179.744 696.45 C 187.184 682.597 196.704 668.19 201.779 653.299 C 206.279 640.095 206.979 625.222 209.185 611.467 C 212.162 592.911 216.737 574.722 222.894 556.969 C 227.45 543.833 233.181 531.216 238.757 518.498 C 240.479 514.571 244.876 507.159 245.337 502.996 C 245.713 499.597 242.85 492.472 242.344 488.5 C 240.358 472.906 241.891 455.159 246.116 440 C 254.444 410.125 272.092 386.794 298 369.835 C 303.653 366.135 309.521 361.983 315.934 359.749 C 320.986 357.989 326.642 356.688 331.935 355.975 C 335.826 355.451 340.794 355.563 344.299 353.697 C 357.721 346.551 370.28 337.425 383.517 329.861 L 460.401 287.696 C 460.234 271.814 461.205 253.644 457.321 238.203 C 455.813 232.208 452.851 226.52 451.091 220.535 C 449.758 216.008 449.675 210.583 448.043 206.293 C 446.648 202.624 441.393 199.112 439.313 194.796 C 436.221 188.382 435.144 181.286 433.521 174.415 C 431.16 164.421 428.449 154.494 427.032 144.311 C 428.781 139.766 430.371 136.096 433.5 132.256 C 436.737 130.855 437.046 130.75 440.5 131.388 C 440.742 125.287 439.518 118.911 439.16 112.78 C 437.751 88.6629 439.802 65.8116 454.928 46.0054 C 471.373 24.472 494.484 14.8322 520.669 11.3609 z"/>
<path transform="translate(0,0)" fill="rgb(255,255,255)" d="M 460.299 307.5 L 461.35 307.768 C 463.629 311.997 463.436 318.549 463.5 323.286 L 461.5 321.348 C 459.306 318.046 456.358 314.375 455.55 310.5 L 460.299 307.5 z"/>
<path transform="translate(0,0)" fill="rgb(255,255,255)" d="M 408.618 1964.69 C 410.621 1973.19 414.185 1982.37 414.867 1991 C 414.256 1992.77 413.752 1994.56 412.391 1995.92 C 407.802 2000.53 400.047 2000.1 394.026 2000.42 C 392.213 2000.48 391.073 2000.37 389.369 1999.73 C 393.383 1987.9 402.231 1975.48 408.618 1964.69 z"/>
<path transform="translate(0,0)" fill="rgb(255,255,255)" d="M 643.803 1964.05 C 649.735 1976.73 659.388 1986.32 665.777 1998.5 L 665 1999.96 L 660.5 2000.14 L 660 2000.12 C 653.191 1999.49 643.682 1999.58 639.052 1994 C 636.171 1985.5 642.18 1972.86 643.803 1964.05 z"/>
<path transform="translate(0,0)" fill="rgb(255,255,255)" d="M 661.2 871.721 C 669.528 890.964 673.861 914.282 678.46 934.703 C 675.824 937.728 673.713 941.215 671.5 944.556 L 669.408 947.562 L 655.146 881.803 L 661.2 871.721 z"/>
<path transform="translate(0,0)" fill="rgb(255,255,255)" d="M 657.902 1888.16 C 660.552 1888.4 664.064 1888.46 666.481 1889.66 C 675.477 1894.11 682.433 1909.62 686.152 1918.37 C 681.962 1917.41 676.517 1912.88 671.882 1911.21 L 670.461 1910.71 C 659.82 1909.87 651.556 1913.87 641.801 1917.2 L 647.091 1894.87 C 650.629 1891.56 653.237 1889.58 657.902 1888.16 z"/>
<path transform="translate(0,0)" fill="rgb(255,255,255)" d="M 392.649 1887.94 C 394.598 1887.89 395.884 1887.92 397.698 1888.77 C 402.296 1890.91 405.009 1896.39 406.5 1900.91 C 408.161 1905.95 410.029 1912.06 407.5 1916.93 C 403.123 1915.57 399.404 1912.15 395.145 1910.9 C 392.136 1910.02 385.489 1912.06 382.267 1912.65 C 376.458 1913.84 371.786 1916.3 366.644 1919.1 C 367.616 1914.63 368.666 1910.02 370.719 1905.9 C 375.046 1897.21 383.832 1891.24 392.649 1887.94 z"/>
<path transform="translate(0,0)" fill="rgb(255,255,255)" d="M 394.2 873.56 L 395.224 874.53 C 396.188 875.527 400.559 879.758 400.913 880.86 C 401.059 881.314 399.999 884.308 399.808 885.031 L 395.217 903.287 C 391.728 919.554 389.296 936.377 388.653 953 L 387.96 953.301 L 386.608 951.52 L 375.956 938.384 L 394.2 873.56 z"/>
<path transform="translate(0,0)" fill="rgb(255,255,255)" d="M 490.956 279.808 C 499.602 288.205 509.579 292.444 521.331 294.425 C 537.148 297.09 551.453 291.263 564.01 282.204 C 559.554 299.785 554.372 315.268 547.864 332.194 C 545.743 339.426 543.642 347.447 539.87 354 C 537.764 357.66 535.158 361.211 530.767 362.067 C 527.56 362.692 524.795 362.061 522.104 360.259 C 506.662 349.916 494.414 298.405 490.956 279.808 z"/>
<path transform="translate(0,0)" fill="rgb(255,255,255)" d="M 532.94 634.394 C 544.313 642.367 556.212 647.597 568.75 653.341 L 608.139 671.185 C 608.589 674.968 607.177 679.588 606.407 683.298 L 599.211 712.774 C 598.546 715.284 597.949 719.791 596.22 721.574 C 578.006 717.55 557.109 713.733 540.999 704.129 C 537.475 698.46 536.317 691.572 535.23 685.078 C 532.389 668.102 532.873 651.522 532.94 634.394 z"/>
<path transform="translate(0,0)" fill="rgb(255,255,255)" d="M 522.283 634.5 L 523.407 634.36 L 524.343 635.5 C 524.21 655.59 525.858 683.946 514.835 701.824 C 513.377 704.188 511.873 706.357 509.5 707.889 C 505.518 710.459 499.185 711.672 494.627 712.93 L 460 721.768 C 457.654 720.114 457.561 717.697 456.725 715.017 L 446.44 671.215 L 488.032 652.98 C 499.439 647.991 511.573 643.723 521.116 635.514 L 522.283 634.5 z"/>
<path transform="translate(0,0)" fill="rgb(255,255,255)" d="M 902.114 962.5 L 904.704 962.101 C 908.301 994.396 919.426 1025.22 922.867 1057.63 C 924.154 1069.74 923.048 1084.07 922.668 1096.32 C 922.369 1105.97 922.642 1117.68 919.261 1126.72 C 918.811 1111.61 921.281 1095.78 921.465 1080.5 C 921.526 1075.43 922.308 1068.75 919.764 1064.22 C 917.129 1062.61 916.93 1062.5 913.866 1062.69 C 911.811 1064.49 909.47 1066.2 908.86 1069 C 906.635 1079.21 908.166 1091.53 907.942 1102 C 907.706 1113.01 905.871 1123.26 903.961 1134.04 C 901.724 1146.67 899.618 1158.57 894.742 1170.5 L 893.472 1171 C 900.708 1150.59 902.385 1128.32 904.696 1106.93 C 905.716 1096.27 910.564 1078.62 906.065 1068.5 C 904.796 1065.65 903.279 1065.26 900.5 1064.27 C 897.233 1064.79 894.962 1064.91 892.63 1067.63 C 890.342 1070.31 889.848 1072.08 890.226 1075.5 C 892.549 1096.48 889.742 1118.31 886.35 1139.05 C 885.25 1145.77 884.701 1153.3 881.81 1159.5 C 881.603 1159.17 881.247 1158.89 881.189 1158.5 C 880.942 1156.86 882.38 1152.43 882.689 1150.5 L 886.132 1124.35 C 887.708 1111.34 888.991 1097.93 889.254 1084.83 C 889.317 1081.69 890.114 1075.71 889.021 1072.9 C 886.27 1065.82 884.582 1058.73 883.163 1051.25 L 878.111 1025 C 877.376 1021.64 876.934 1017.44 874.5 1014.91 C 873.225 1015 871.738 1015.03 870.5 1015.43 C 862.508 1017.99 863.687 1026.94 860.542 1033.54 C 860.873 1011.26 872.963 994.636 877.605 973.487 C 886.623 970.854 894.052 967.268 902.114 962.5 z"/>
<path transform="translate(0,0)" fill="rgb(255,255,255)" d="M 533.876 560.417 C 547.984 576.318 567.796 583.217 586.981 591.049 C 588.859 591.816 594.293 593.283 595.592 594.553 C 595.661 594.619 596.582 596.368 596.718 596.648 C 600.092 603.62 602.555 611.356 605.437 618.569 C 608.514 626.268 613.566 635.008 613.323 643.469 C 613.189 648.138 611.086 653.113 609.555 657.5 C 608.965 658.698 608.493 659.071 607.5 659.923 L 569.476 643.564 C 559.865 639.348 549.535 634.804 541.469 627.997 C 538.554 625.536 535.839 622.709 534.352 619.137 C 532.226 614.029 533.484 605.498 533.65 599.934 C 534.044 586.753 534.772 573.593 533.876 560.417 z"/>
<path transform="translate(0,0)" fill="rgb(255,255,255)" d="M 533.804 710.845 C 552.195 722.786 576.489 726.895 597.245 733.435 L 598.185 736.582 C 601.99 751.383 605.316 774.701 597.262 788.145 C 595.071 789.731 590.558 793.471 587.822 793.824 C 584.052 794.311 578.555 793.155 574.747 792.586 L 550.791 788.707 C 546.096 787.927 538.742 787.568 535.379 783.903 C 532.511 780.778 533.802 719.96 533.804 710.845 z"/>
<path transform="translate(0,0)" fill="rgb(255,255,255)" d="M 523.437 561.5 C 524.728 564.846 523.511 571.44 523.528 575.251 L 523.547 607.059 C 523.418 610.951 523.752 615.939 522.327 619.543 C 516.574 634.099 483.95 644.554 470.488 650.204 L 445.922 661.487 C 444.747 656.217 443.17 650.652 442.887 645.251 C 442.781 643.217 442.906 641.235 443.531 639.29 C 447.173 627.948 452.78 617.068 457.193 605.974 C 458.461 602.785 461.004 594.42 463.565 592.158 C 465.489 590.459 472.148 588.768 474.631 587.939 C 491.234 582.402 510.712 576.433 522.385 562.746 L 523.437 561.5 z"/>
<path transform="translate(0,0)" fill="rgb(255,255,255)" d="M 520.395 711.5 C 522.369 716.112 521.077 726.443 521.259 731.796 C 521.86 749.453 523.726 766.38 522.415 784.173 C 509.837 787.781 496.935 790.066 484.071 792.383 C 478.971 793.302 473.175 795.032 468.039 794.937 C 464.937 794.879 464.196 793.351 462.132 791.322 L 461.488 790.602 C 459.058 787.821 454.086 781.891 452.979 778.37 C 452.68 777.419 453.149 775.008 453.207 773.888 L 454.064 758.421 C 454.254 755.345 455.188 735.549 456.683 734.167 C 457.825 733.113 464.939 731.639 466.701 731.16 L 496.182 722.939 C 504.967 720.343 512.389 718.699 519.426 712.388 L 520.395 711.5 z"/>
<path transform="translate(0,0)" fill="rgb(255,255,255)" d="M 380.67 1339.67 C 385.354 1346.49 388.903 1354.36 392.848 1361.64 C 401.529 1377.65 412.094 1394.81 415.327 1412.9 C 419.549 1436.51 422.023 1466.49 416.557 1489.94 C 415.008 1496.59 412.999 1503.52 408.82 1509.03 C 406.076 1512.65 403.105 1514.45 398.533 1514.73 C 394.888 1514.95 390.261 1514.79 387.5 1512.19 C 382.04 1504.89 380.681 1496.69 379.369 1487.94 C 377.374 1474.64 378.359 1462.9 378.837 1449.62 C 379.171 1440.37 377.412 1428.93 383.158 1421.18 C 386.358 1420.71 389.728 1422.86 392.764 1423.99 C 397.11 1425.6 400.087 1426.36 404.4 1424.4 C 406.099 1421.83 406.59 1420.57 406.87 1417.5 C 405.779 1416.28 404.97 1415.58 403.349 1415.18 C 395.623 1413.26 388.866 1409.07 382.102 1404.96 C 381.186 1399.48 382.551 1393.56 382.749 1388 C 383.31 1372.19 384.216 1355.16 380.67 1339.67 z"/>
<path transform="translate(0,0)" fill="rgb(255,255,255)" d="M 673.706 1341.82 C 672.774 1361.59 671.59 1379.79 674.549 1399.5 C 670.805 1411.06 658.064 1411.65 648.651 1416.68 L 648.275 1419 C 649.761 1422.58 649.911 1423.33 653.184 1425.68 C 658.611 1426.79 665.652 1422.87 671 1421.16 C 673.173 1422.57 674.232 1423.34 674.611 1426.06 C 675.283 1430.88 674.722 1436.11 675.055 1441 C 675.5 1447.54 676.888 1453.96 677.239 1460.54 C 677.804 1471.12 676.507 1481.67 674.313 1492.01 C 673.047 1497.97 671.62 1504.09 668.091 1509.14 L 658.584 1515.59 C 655.292 1515.2 651.092 1514.11 648.364 1512.16 C 639.298 1505.67 637.295 1488.36 635.711 1478 C 633.979 1466.67 634.746 1454.09 635.536 1442.67 C 636.352 1430.87 636.861 1419.12 639.862 1407.62 C 642.214 1398.61 646.641 1390.25 650.901 1382.02 L 673.706 1341.82 z"/>
<path transform="translate(0,0)" fill="rgb(255,255,255)" d="M 144.394 970.175 L 148.5 970.744 C 155.309 971.659 161.937 972.955 168.5 975.039 C 171.662 976.043 176.862 977.17 178.251 980.273 C 180.529 985.361 181.357 991.775 182.935 997.175 C 187.76 1013.68 193.697 1029.77 195.981 1046.91 C 196.397 1050.02 197.497 1053.98 196.448 1056.96 C 194.417 1041.7 189.918 1028.25 184.482 1013.94 C 175.005 1032.79 167.743 1056.1 167.325 1077.32 C 166.983 1094.64 170.379 1112.04 173.355 1129.02 C 175.084 1138.89 177.807 1149.07 178.713 1159 L 177.5 1159.02 C 173.31 1150.5 171.765 1140.22 169.748 1131 C 167.888 1122.5 165.583 1113.84 164.5 1105.2 C 163.346 1095.98 163.865 1083.03 160.152 1074.5 C 159.217 1072.35 157.271 1071.16 155 1070.82 C 152.182 1070.4 150.446 1071.02 148.146 1072.5 C 147.483 1079.92 148.711 1087.82 149.37 1095.24 C 151.353 1111.29 155.705 1126.87 159.756 1142.5 C 162.269 1152.2 165.915 1162.62 165.657 1172.7 C 164.132 1170.92 159.055 1143.55 157.7 1138.21 C 154.959 1127.41 150.227 1116.63 148.215 1105.7 C 146.816 1098.1 146.372 1090.16 145.591 1082.47 C 145.283 1079.43 145.379 1075.3 144.263 1072.5 C 143.394 1070.32 141.291 1068.67 139 1068.2 C 135.876 1067.58 133.738 1067.95 131.095 1069.5 C 130.164 1080.92 132.699 1094.79 135.018 1106 L 140.64 1128 C 141.541 1131.28 143.315 1135.72 142.5 1139 C 138.879 1126.59 132.687 1114.03 130.095 1101.53 C 128.658 1094.6 128.577 1087.23 128.303 1080.17 C 128.035 1073.26 127.534 1066.09 128.021 1059.2 C 128.68 1049.86 130.966 1040.07 132.684 1030.86 L 144.394 970.175 z"/>
<path transform="translate(0,0)" fill="rgb(255,255,255)" d="M 404.129 887.772 C 414.124 896.984 422.853 910.092 429.295 922.042 C 437.243 936.787 441.205 952.535 444.607 968.807 C 445.09 971.114 446.644 975.59 446.468 977.806 C 446.298 979.933 444.162 983.969 443.363 986.056 L 432.509 1014.01 L 421.111 1049.74 C 419.766 1053.7 418.139 1059.64 414.5 1062 C 413.58 1061.33 413.002 1060.72 412.542 1059.66 C 408.544 1050.45 408.663 1035.11 407.405 1024.87 L 401.917 990.557 C 400.868 984.846 399.788 979.028 397.985 973.5 C 395.996 967.404 392.93 961.929 392.819 955.421 C 392.444 933.528 396.651 908.326 404.129 887.772 z"/>
<path transform="translate(0,0)" fill="rgb(255,255,255)" d="M 650.326 887.5 L 651.488 888.078 C 658.239 904.532 661.69 925.64 663.687 943.282 C 664.113 947.046 664.676 951.64 664.003 955.371 C 663.114 960.297 659.001 965.486 657.278 970.368 C 652.958 982.604 650.748 995.721 648.941 1008.53 C 647.621 1017.89 646.695 1053.71 641.866 1059.79 L 639.5 1059.94 C 635.454 1056.69 634.441 1052.94 632.737 1048.23 C 625.108 1024 618.477 1000.76 608.146 977.397 C 609.088 970.682 611.345 964.107 613.163 957.581 C 615.844 947.956 618.365 938.132 622.524 929.02 C 629.37 914.019 639.977 900.228 650.326 887.5 z"/>
<path transform="translate(0,0)" fill="rgb(255,255,255)" d="M 662.25 1920.99 L 670 1921.16 C 679.856 1922.91 689.087 1935.88 695.515 1942.89 C 705.236 1953.5 715.711 1964.48 726.657 1973.81 L 756.668 1998.01 C 760.277 2001.21 764.646 2004.62 767.517 2008.51 C 769.264 2010.88 768.977 2011.27 768.5 2014.01 C 766.249 2014.28 766.907 2014.14 765.687 2012.41 C 764.035 2010.05 762.79 2007.22 760.912 2005.07 C 756.905 2000.49 750.207 1997.34 744.943 1994.43 C 746.283 1997.56 747.851 2000.39 749.592 2003.31 L 748.5 2004.46 C 740.681 2000.6 733.893 1997.37 725.209 1995.95 C 731.016 2001.32 737.06 2006.08 743.634 2010.48 L 747.96 2012.39 C 750.305 2013.64 750.263 2013.54 750.98 2016 L 749.755 2017.69 L 741.122 2017.71 C 740.249 2016.26 739.423 2014.9 738.193 2013.71 C 733.523 2009.2 727.244 2005.5 722.031 2001.58 C 721.162 2000.93 718.444 1998.4 717.5 1998.17 C 716.526 1997.94 715.5 1998.25 714.5 1998.28 C 713.861 1999.17 712.931 1999.91 712.582 2000.95 C 711.615 2003.83 721.063 2013.96 722.593 2017.14 C 723.779 2019.6 723.708 2022.33 723.647 2024.99 L 722.043 2026.5 C 717.562 2026.74 713.27 2026.17 709 2024.76 C 700.146 2021.86 691.089 2015.22 685.65 2007.62 C 680.674 2000.66 677.566 1992.65 672.23 1985.85 C 664.673 1976.21 653.52 1966.08 648.421 1954.93 C 645.529 1948.61 644.278 1940.11 647.02 1933.5 C 649.66 1927.14 656.277 1923.54 662.25 1920.99 z"/>
<path transform="translate(0,0)" fill="rgb(255,255,255)" d="M 385.633 1921.04 C 388.385 1921.01 391.25 1920.9 393.854 1921.92 C 398.355 1923.69 401.742 1927.6 403.604 1931.96 C 405.73 1936.94 408.831 1946.05 406.494 1951.2 L 405.838 1952.5 C 400.369 1963.65 391.003 1971.85 384.344 1982.16 C 379.796 1989.2 377.736 1997.59 373.209 2004.55 C 370.786 2008.27 367.31 2011.38 364.353 2014.67 C 361.932 2017.37 359.276 2021.07 356.427 2023.27 C 354.599 2024.67 351.504 2024.73 349.28 2025.09 L 328.656 2028.47 C 330.131 2023.44 331.86 2018.72 335.112 2014.5 C 338.792 2009.73 344.224 2005.43 345.797 1999.5 C 344.416 1997.67 344.225 1997.7 342 1997.03 C 336.278 1999.02 332.901 2003.39 328.28 2007.04 C 322.931 2011.27 317.434 2014.33 312.605 2019.25 L 309.5 2022.31 L 308.5 2020.18 C 313.866 2011.96 320.445 2004.97 325.249 1996.3 C 321.739 1997.43 317.033 1998.56 314.003 2000.65 C 310.313 2003.18 307.204 2007.28 303.978 2010.41 C 300.937 2013.35 297.4 2015.78 293.925 2018.18 L 309.701 1995.04 L 285.626 2007.41 C 293.395 1998.54 303.17 1992.22 312.531 1985.23 C 319.202 1980.24 325.496 1974.7 331.666 1969.12 C 346.39 1955.79 358.721 1939.7 373.813 1926.87 C 377.254 1923.95 381.418 1922.45 385.633 1921.04 z"/>
<path transform="translate(0,0)" fill="rgb(255,255,255)" d="M 651.585 767.5 L 653.428 767.651 C 656.599 775.044 656.199 788.313 657.041 796.72 C 658.714 813.408 661.002 832.67 656.666 849.112 C 653.868 859.718 646.87 869.396 640.898 878.433 C 633.5 889.629 626.06 900.943 619.674 912.751 C 610.839 929.086 605.534 946.993 599.806 964.583 L 595.132 956.953 C 594.094 955.255 589.508 949.14 589.427 947.621 C 589.368 946.525 590.522 943.669 590.846 942.529 L 594.909 928.004 C 601.54 903.291 610.968 876.655 611.568 851 C 611.905 836.588 608.534 819.396 603.34 805.957 C 603.218 805.642 602.917 805.35 602.967 805.017 C 603.208 803.396 606.226 799.592 607.209 797.781 C 609.693 793.209 611.309 788.92 612.47 783.844 L 612.816 782.294 L 651.585 767.5 z"/>
<path transform="translate(0,0)" fill="rgb(255,255,255)" d="M 202.735 688.888 C 204.49 694.575 204.923 700.626 205.782 706.5 C 206.524 711.573 207.942 717.367 207.283 722.482 C 206.177 731.054 203.172 739.886 201.119 748.321 L 188.316 801.061 C 176.595 850.443 168.05 902.364 165.723 953.117 C 170.293 943.484 172.51 932.933 176.206 922.957 C 186.546 895.052 204.12 867.479 226.354 847.459 L 213.862 867.524 C 195.938 897.829 183.792 931.143 173.115 964.509 C 163.819 962.025 155.199 960.675 145.61 959.957 C 146.463 949.723 149.086 939.635 150.669 929.5 L 154.241 897.139 L 159.367 825.812 C 164.324 778.63 179.892 730.383 202.735 688.888 z"/>
<path transform="translate(0,0)" fill="rgb(255,255,255)" d="M 400.586 764.927 C 414.502 771.35 426.755 777.232 441.691 781.248 C 443.845 788.761 449.426 796.17 450.913 803.371 C 451.719 807.275 449.258 815.33 448.525 819.429 C 446.269 832.027 443.587 844.977 445.213 857.789 C 449.154 888.824 460.739 918.938 465.833 949.827 L 459.794 957.997 L 456.209 965.632 C 449.932 945.249 443.206 925.708 432.358 907.205 C 426.262 896.808 419.339 887.116 412.15 877.46 C 407.205 870.819 398.055 861.096 395.966 853.092 C 394.253 846.525 395.284 837.664 395.491 830.875 L 400.586 764.927 z"/>
<path transform="translate(0,0)" fill="rgb(255,255,255)" d="M 430.356 1508.5 C 434.084 1516.67 427.119 1535.42 425.192 1543.74 C 423.823 1549.65 422.876 1555.73 422.331 1561.77 C 421.121 1575.18 421.891 1587.9 424.61 1601.04 C 428.603 1584.31 431.818 1565.54 438.807 1549.77 L 440.561 1617 C 441.057 1650.42 437.7 1689.92 425.132 1721.11 L 422.774 1674.53 C 422.024 1666.87 421.688 1658.9 419.101 1651.61 C 416.65 1657.95 416.05 1664.94 415.13 1671.63 L 411.617 1706.66 L 407.31 1759.76 L 403 1827.56 L 402.334 1860.56 C 402.31 1866.17 403.209 1873.24 401.5 1878.49 C 399.186 1878.97 397.765 1878.62 395.5 1878.03 C 394.2 1875.31 394.236 1873.02 394.097 1870.08 C 392.317 1832.48 393.337 1795.08 394.54 1757.5 L 397.006 1684 L 403.996 1604 C 406.03 1583.95 408.237 1563.92 412.757 1544.24 C 414.229 1537.83 415.406 1530.22 420.025 1525.31 C 424.564 1520.47 427.356 1516.16 429.762 1510.03 L 430.356 1508.5 z"/>
<path transform="translate(0,0)" fill="rgb(255,255,255)" d="M 624.398 1508.5 C 626.656 1511.29 627.468 1516.69 629.252 1519.97 C 632.198 1525.4 637.15 1529.46 639.264 1535.42 C 644.975 1551.52 648.439 1569.74 651.564 1586.5 C 666.837 1668.42 664.496 1752.74 660.465 1835.63 L 659.028 1866.67 C 658.911 1869.48 659.336 1875.31 658.002 1877.67 C 657.28 1878.95 652.084 1879.63 650.5 1880.02 L 649.16 1879 L 644.149 1763.25 L 639.873 1695.2 C 638.692 1679.89 638.015 1664.52 634.448 1649.54 C 628.826 1673.11 628.578 1698.12 627.281 1722.27 C 623.169 1701.45 617.42 1680.64 615.054 1659.54 C 610.923 1622.68 614.621 1584.96 615.476 1547.94 C 617.284 1553.44 619.593 1558.63 621.114 1564.27 C 624.571 1577.06 626.774 1589.53 631.863 1601.86 C 634.421 1584.74 634.209 1567.63 631.123 1550.58 C 628.544 1536.34 621.423 1523.34 624.398 1508.5 z"/>
<path transform="translate(0,0)" fill="rgb(255,255,255)" d="M 689.348 1503 C 692.164 1512.03 693.57 1522.29 695.818 1531.6 C 706.582 1576.17 716.189 1620.81 707.47 1666.64 C 702.074 1695 693.311 1722.36 689.568 1751.1 C 683.96 1794.17 683.187 1838.55 674.832 1881.17 L 667.718 1876.98 L 668.934 1819.82 C 668.987 1756.96 673.975 1694.34 668.59 1631.5 C 666.573 1607.96 661.885 1584.53 657.602 1561.32 C 655.691 1550.96 653.262 1540.47 652.184 1530 L 654 1528.98 C 657.087 1527.65 658.783 1526.58 661.39 1524.32 L 662.326 1523.5 L 663.318 1525.5 L 671.434 1519.39 C 672.906 1521.63 672.613 1528.07 672.846 1530.89 L 676.67 1568.15 C 677.382 1573.35 677.559 1579.11 681.5 1582.81 C 683.245 1581.57 684.037 1580.36 684.707 1578.36 C 687.086 1571.26 686.776 1563.05 686.825 1555.64 L 687.088 1519.03 C 687.292 1513.6 688.256 1508.31 689.348 1503 z"/>
<path transform="translate(0,0)" fill="rgb(255,255,255)" d="M 366.685 1506.88 C 372.022 1526.79 368.599 1548.72 372.267 1569.14 C 373.092 1573.73 373.737 1579.21 377.006 1582.71 L 378.257 1582.21 C 381.77 1574.16 380.617 1563.06 381.009 1554.34 L 383.428 1520.88 C 386.838 1521.53 389.145 1523.81 392.228 1525.2 C 395.503 1526.68 399.464 1527.08 402.987 1527.66 L 385.018 1825.34 L 385.423 1877.12 L 377.343 1883.85 L 363.486 1742.04 C 360.23 1718.35 352.041 1696.22 347.515 1672.83 C 336.846 1617.7 350.304 1559.64 366.685 1506.88 z"/>
<path transform="translate(0,0)" fill="rgb(255,255,255)" d="M 473.095 266.5 L 473.652 266.258 C 475.781 266.605 479.437 268.758 480.325 270.903 C 482.385 275.882 481.351 284.755 482.215 290.375 C 485.731 313.242 496.277 340.629 512.687 357.448 C 517.66 362.545 521.985 364.264 529.156 364.243 C 532.736 364.233 536.614 363.54 539.571 361.39 C 544.178 358.041 547.676 351.339 550.531 346.477 C 559.296 331.548 566.716 315.826 570.355 298.819 C 572.011 291.08 571.433 281.37 573.702 274.058 C 574.522 271.417 578.837 268.07 580.836 266.15 C 581.957 272.147 581.142 279.472 581.089 285.615 C 580.918 305.628 580.253 324.191 577.183 344 L 578.5 345.086 L 579.5 344.843 C 588.885 341.363 599.253 322.312 603.625 313.902 C 616.603 319.427 628.441 327.473 640.733 334.367 C 654.653 342.173 668.972 349.155 682.507 357.671 L 635.129 361.738 C 616.611 363.569 598.536 365.691 580.281 369.391 C 567.635 371.954 554.503 374.986 544 382.909 C 536.977 388.208 531.934 394.036 530.688 402.964 C 530.462 404.581 530.809 403.686 529.5 405.303 C 527.938 401.307 525.654 397.443 523.086 394 C 495.082 356.435 409.669 365.647 367.837 359.583 C 381.008 349.269 398.462 341.111 413.227 333.074 C 425.065 326.63 436.545 319.348 449.082 314.328 C 453.767 319.142 457.268 325.412 461.232 330.858 C 465.525 336.755 470.704 341.976 475.776 347.196 L 473.095 266.5 z"/>
<path transform="translate(0,0)" fill="rgb(255,255,255)" d="M 469.409 964.5 C 471.27 964.971 471.374 966.799 472.087 968.508 C 482.7 993.945 488.475 1023.45 509.671 1042.83 L 510.897 1043.94 L 492.852 1150.18 C 490.728 1141.79 491.836 1130.03 491.431 1121.14 C 490.468 1099.99 487.735 1079.06 482.743 1058.49 C 480.232 1048.14 477.645 1037.68 472.071 1028.5 C 469.609 1049.58 472.194 1071.81 473.523 1092.94 C 475.44 1123.42 477.194 1154.23 475.428 1184.75 C 474.694 1225.23 466.607 1265.83 461.065 1305.87 C 458.486 1296.51 458.756 1284.18 457.523 1274.41 L 447.91 1208.16 L 440.931 1166.33 C 436.409 1144.6 430.847 1122.73 429.281 1100.55 C 426.946 1067.46 433.725 1033.87 447.638 1003.83 C 453.876 990.359 462.125 977.457 469.409 964.5 z"/>
<path transform="translate(0,0)" fill="rgb(255,255,255)" d="M 585.899 961.692 C 588.995 971.684 595.676 981.042 600.686 990.172 C 608.415 1004.26 614.675 1019.83 618.446 1035.45 C 623.737 1057.38 625.253 1080.13 624.127 1102.62 C 622.982 1125.51 617.865 1148.02 613.706 1170.5 L 602.148 1239.45 L 596.684 1278.5 C 595.599 1288.05 595.292 1298.38 592.852 1307.69 L 579.08 1193.25 L 578.69 1117.88 C 579.958 1088.93 584.634 1056.49 579.369 1027.86 C 572.24 1042.71 569.41 1058.28 566.891 1074.44 C 563.081 1098.9 561.521 1122.27 561.559 1147 L 560.873 1146.5 L 549.395 1073.67 L 544.594 1050.61 C 544.384 1049.5 543.344 1045.81 543.531 1044.87 C 543.664 1044.2 548.84 1039.64 549.596 1038.87 C 553.767 1034.64 556.988 1030.68 559.898 1025.5 C 571.16 1005.43 578.095 983.252 585.899 961.692 z"/>
<path transform="translate(0,0)" fill="rgb(255,255,255)" d="M 843.135 678.678 C 853.929 700.481 867.934 720.506 876.814 743.409 C 884.425 763.037 887.409 783.236 890.403 803.955 C 897.48 852.942 898.769 902.292 903.474 951.492 C 895.973 957.549 888.566 960.542 879.407 963.326 C 873.205 938.934 864.101 916.154 852.122 894 L 823.829 845.78 C 831.355 851.953 837.449 860.034 843.649 867.493 C 852.389 878.005 861.127 888.332 870.824 897.994 C 866.874 876.715 848.611 855.629 833.5 840.755 C 823.566 830.976 814.525 824.469 808.032 811.693 L 803.523 801.258 C 794.22 774.027 794.675 745.226 793.671 716.833 C 823.281 740.435 843.882 776.999 854.753 812.853 C 861.277 834.371 864.967 856.986 868.944 879.105 C 871.584 893.791 874.944 906.926 879.247 921.216 C 881.661 929.229 883.737 937.18 887.901 944.517 L 888.223 939.986 C 888.57 923.829 881.825 905.298 878.883 889.428 L 869.225 827.574 C 862.702 794.964 848.425 758.554 825.316 734.237 C 833.021 738.41 839.884 746.228 848 748.737 C 849.61 747.118 849.311 747.371 849.267 745.199 C 849.092 736.535 845.711 727.213 844.451 718.483 C 842.532 705.191 842.95 692.065 843.135 678.678 z"/>
<path transform="translate(0,0)" fill="rgb(255,255,255)" d="M 371.906 951.334 C 376.765 959.302 381.736 967.354 385.331 975.992 C 389.389 985.742 391.536 995.949 393.704 1006.24 C 398.209 1027.63 400.83 1049.65 398.598 1071.5 C 395.901 1097.89 387.389 1124.83 381.046 1150.6 C 374.693 1176.41 370.082 1202.68 367.55 1229.15 C 364.854 1257.34 368.064 1284.47 369.904 1312.5 L 371.651 1365.5 L 370.536 1366.79 C 361.536 1339.53 352.363 1311.81 347.149 1283.51 C 344.47 1268.96 343.615 1254.06 342.465 1239.32 C 336.636 1164.64 343.674 1088.18 357.513 1014.69 L 371.906 951.334 z"/>
<path transform="translate(0,0)" fill="rgb(255,255,255)" d="M 682.514 949.446 C 690.531 969.968 694.06 994.801 698.722 1016.4 C 706.808 1053.87 713.761 1092.25 716.612 1130.5 C 718.751 1159.19 717.674 1187.96 715.613 1216.62 C 713.649 1243.93 711.26 1271.27 705.876 1298.15 C 701.466 1320.17 694.431 1343.33 686.943 1364.5 L 686.585 1364.91 C 684.982 1361.43 685.867 1354.66 685.896 1350.73 C 686.095 1323.74 690.745 1297.31 691.23 1270.48 C 691.836 1236.94 687.959 1204.11 679.968 1171.5 L 664.584 1116.5 C 653.109 1072.31 652.695 1017.09 669.528 974.093 C 672.925 965.413 677.816 957.465 682.514 949.446 z"/>
<path transform="translate(0,0)" fill="rgb(255,255,255)" d="M 736.995 487.051 C 744.567 490.906 751.883 496.332 758.943 501.097 C 773.71 511.064 789.924 521.807 800.646 536.265 C 819 561.016 825.068 596.45 829.817 626.212 C 831.706 638.053 833.998 650.64 833.98 662.642 C 833.964 673.572 830.368 684.089 830.603 695.332 C 830.721 701.026 831.075 706.892 832.114 712.5 C 832.892 716.694 835.102 722.192 834.5 726.384 L 831.5 725.316 L 830.688 724.929 C 818.737 718.727 807.873 710.181 796.559 702.915 C 794.072 701.317 787.267 698.217 785.91 696.25 C 783.636 692.956 782.61 684.148 780.802 679.903 C 777.018 671.021 772.168 662.563 768.07 653.813 C 760.876 638.45 754.646 623.009 749.494 606.839 C 740.726 579.317 733.569 549.273 730.597 520.5 C 730.037 515.07 728.869 508.633 729.659 503.219 C 730.432 497.922 734.533 491.82 736.995 487.051 z"/>
<path transform="translate(0,0)" fill="rgb(255,255,255)" d="M 717.639 512.551 L 714.112 546.969 C 707.672 583.411 697.79 630.562 668.699 655.913 C 660.228 663.294 649.682 667.794 640.5 674.196 C 641.962 676.821 644.436 677.678 647.3 678.59 C 655.475 681.195 662.77 672.801 669.643 669.525 C 666.197 676.191 662.551 682.935 660.111 690.052 C 652.653 711.805 651.708 734.986 652.518 757.755 L 612.073 773.7 C 611.569 764.99 611.286 756.159 610.211 747.5 C 609.34 740.482 606.768 732.115 607.107 725.15 C 607.628 714.427 611.943 702.544 614.342 692.013 C 616.144 684.105 616.62 676.167 618.19 668.293 C 619.796 660.244 622.006 652.695 623.17 644.5 C 623.454 642.501 623.82 640.53 623.658 638.5 C 623.031 630.671 617.79 621.603 615.059 614.083 C 612.824 607.928 608.808 591.296 603.731 586.908 C 599.424 583.186 589.139 580.836 583.712 578.764 C 573.426 574.836 563.697 570.267 554.013 565.044 C 549.464 562.591 544.472 560.236 540.596 556.788 C 539.335 555.666 535.445 552.63 534.827 551.241 C 534.293 550.042 534.294 546.344 534.143 544.881 L 532.88 527.757 L 533.5 523.611 C 537.215 527.249 539.969 531.779 543.567 535.548 C 551.466 543.822 561.335 548.958 572.03 552.699 C 595.821 561.021 625.954 561.649 650.139 554.872 C 662.301 551.464 673.771 546.054 685.126 540.61 L 678.185 564.214 C 670.694 585.646 654.8 593.683 635.471 603.119 C 647.165 602.366 656.244 601.249 667.127 596.462 C 662.557 607.596 658.689 618.338 652.975 629 C 649.577 635.34 643.53 636.313 638.154 640.5 C 638.563 643.273 639.978 644.392 641.887 646.239 C 644.205 646.925 644.954 647.436 647.273 646.437 C 651.803 644.488 656.525 640.557 660.635 637.758 C 670.287 631.185 680.52 624.096 686.886 614.035 C 689.914 609.25 691.988 603.592 694.187 598.387 C 686.596 606.934 677.956 614.918 667.987 620.601 L 676.034 592.062 L 687.173 588.095 C 698.186 582.693 701.173 575.167 705.01 564.252 C 697.126 571.509 690.946 576.531 680.864 580.391 L 692.359 549.658 C 694.236 544.289 695.681 537.445 698.638 532.649 C 702.893 525.746 711.857 518.514 717.639 512.551 z"/>
<path transform="translate(0,0)" fill="rgb(255,255,255)" d="M 340.728 515.046 C 347.557 522.387 353.805 528.143 362.038 533.881 C 363.369 534.809 366.728 536.544 367.647 537.761 C 368.802 539.289 374.423 573.13 375.511 578.486 C 365.718 572.115 356.099 561.89 347.882 553.606 C 352.971 566.946 359.187 578.248 371.544 586.109 C 372.813 586.917 377.812 589.313 378.469 590.347 C 379.878 592.564 380.639 599.303 381.244 602.072 L 386.957 624.604 L 361.508 597.636 L 362.508 601.334 C 366.908 615.764 376.006 623.937 386.392 634.021 C 390.727 638.231 394.684 642.779 400.045 645.701 C 403.599 646.241 406.912 646.106 410.007 644.023 C 412.04 642.655 412.404 642.597 412.829 640.122 L 402.537 634.5 C 393.858 628.871 390.425 605.891 388.168 596.193 C 398.764 600.051 407.845 601.508 419.046 601.992 C 417.971 601.027 418.556 601.383 416.898 600.823 L 411.5 599.038 C 406.911 597.525 402.841 594.855 399 591.953 C 394.272 588.38 388.573 583.429 385.678 578.255 C 380.289 568.622 379.128 554.141 377.563 543.43 C 408.937 557.27 439.379 562.975 473.5 555.834 C 494.046 551.534 511.918 541.665 523.5 523.838 L 524.755 524.052 C 524.995 531.199 526.301 540.619 524.587 547.591 C 520.632 563.688 469.545 577.987 455.787 585.957 C 447.935 596.969 443.088 611.585 437.995 624.109 C 436.144 628.66 432.851 634.671 432.599 639.5 C 432.091 649.276 435.733 658.731 437.45 668.217 C 439.393 678.95 440.285 689.781 442.649 700.467 C 444.481 708.749 448.388 718.619 448.898 727 C 449.045 729.422 448.08 731.257 447.409 733.5 C 443.818 745.514 444.225 760.587 442.782 773.123 C 431.807 769.777 419.959 765.843 409.89 760.272 C 408.356 759.424 402.551 756.568 401.737 755.318 C 401.378 754.767 401.19 726.402 400.866 723.325 C 399.111 706.665 392.803 689.237 387.948 673.207 C 393.445 675.603 401.238 681.542 407.166 680.378 C 410.349 679.754 413.009 678.676 414.782 676 C 411.887 672.689 405.988 671.1 402.08 669.038 C 396.265 665.968 390.881 662.224 386.258 657.519 C 378.471 649.594 373.768 639.229 369.086 629.317 C 358.566 607.043 348.741 581.807 344.079 557.618 C 341.326 543.337 340.871 529.54 340.728 515.046 z"/>
<path transform="translate(0,0)" fill="rgb(255,255,255)" d="M 412.631 1078.15 L 425.846 1148.97 L 444.397 1307.39 C 447.165 1333.29 452.738 1360.2 451.148 1386.24 C 450.208 1401.64 444.519 1418.53 437.818 1432.24 L 431.002 1416.91 L 402.834 1358.33 C 394.267 1343.03 385.229 1326.23 380.701 1309.24 C 376.759 1294.45 376.021 1278.54 375.878 1263.29 C 375.424 1215.06 386.171 1167.81 399.377 1121.68 L 412.631 1078.15 z"/>
<path transform="translate(0,0)" fill="rgb(255,255,255)" d="M 644.116 1075.01 C 645.063 1084.06 648.091 1093.2 650.44 1102 L 664.556 1151.67 C 677.047 1193.57 685.206 1238.22 681.107 1282.08 C 679.819 1295.86 677.739 1310.01 672.708 1322.97 C 666.067 1340.07 654.929 1354.96 645.59 1370.6 C 637.521 1384.12 631.036 1397.91 625.025 1412.43 C 622.165 1418.52 619.223 1423.94 615.084 1429.27 L 613.599 1426.8 C 611.005 1421.74 609.71 1415.29 608.349 1409.78 C 605.678 1398.98 602.99 1387.65 602.892 1376.5 C 602.787 1364.62 604.67 1352.44 606.073 1340.65 L 612.843 1284.85 C 620.93 1215.47 624.287 1142.19 644.116 1075.01 z"/>
<path transform="translate(0,0)" fill="rgb(255,255,255)" d="M 319.259 486.5 L 319.847 486.695 C 321.462 487.648 322.238 489.674 322.957 491.296 C 330.377 508.026 312.933 579.793 306.519 600.418 C 302.726 612.614 297.935 624.616 292.497 636.168 C 288.062 645.591 283.302 655.119 277.722 663.914 C 274.666 668.732 269.35 673.622 267.298 678.829 C 265.559 683.241 265.383 688.222 265.021 692.894 C 264.926 694.119 265.082 697.569 264.604 698.587 C 261.898 704.354 249.664 711.85 244.731 716.134 C 233.042 726.286 215.693 743.169 210.162 757.5 C 211.602 759.604 211.488 759.452 214 759.955 C 219.184 757.382 223.894 751.819 228.162 747.886 L 259.466 717.344 C 255.783 744.554 255.727 772.2 248.489 798.875 C 246.96 804.513 245.391 811.511 242.218 816.448 C 239.643 820.455 235.559 824.054 232.258 827.505 L 214.358 846.016 C 197.69 863.129 185.945 879.347 177.952 901.854 C 178.547 890.181 181.321 878.058 183.289 866.492 C 188.859 833.757 195.121 801.558 204.305 769.59 C 208.771 754.042 215.858 738.749 218.765 722.825 C 220.718 712.125 214.527 698.941 215.408 687.5 C 216.1 678.503 221.191 669.717 222.514 660.661 C 224.121 649.659 223.887 638.138 224.78 627.031 C 225.878 613.37 228.631 599.272 232.005 586 C 237.46 564.54 246.301 540.91 262.91 525.599 C 268.583 520.369 275.456 516.221 281.677 511.656 C 293.985 502.626 306.16 494.331 319.259 486.5 z"/>
<path transform="translate(0,0)" fill="rgb(255,255,255)" d="M 521.459 793.5 C 521.943 793.833 522.552 794.034 522.91 794.5 C 523.296 795.003 522.932 805.655 522.983 807 L 526.07 873.293 C 526.775 898.87 525.597 925.835 530.679 950.971 C 533.053 940.948 532.535 929.635 532.624 919.346 L 532.7 870.016 L 534.107 792.952 L 591.099 808.107 C 597.825 817.631 598.982 828.386 600.79 839.558 C 601.59 844.5 602.796 849.868 602.069 854.867 L 584.892 928.226 C 580.326 946.971 573.614 965.522 566.315 983.358 C 561.204 995.845 555.946 1008.35 549.008 1019.96 C 544.674 1027.21 538.689 1033.17 530.066 1034.8 C 526.019 1035.56 517.919 1032.54 514.531 1030.06 C 509.447 1026.33 505.489 1018.9 502.43 1013.47 C 486.082 984.475 476.8 949.203 468.623 917.156 C 463.635 897.606 458.396 877.863 454.885 858 C 452.611 845.137 457.733 827.826 461.856 815.477 C 476.383 801.544 502.534 798.633 521.459 793.5 z"/>
<path transform="translate(0,0)" fill="rgb(255,255,255)" d="M 518.372 31.2606 C 531.573 29.5943 544.568 31.7984 556.695 37.1032 C 573.43 44.4233 587.446 57.6598 593.778 75.0212 C 599.969 91.9983 597.442 109.61 597.903 127.192 C 598.167 137.299 599.358 147.66 598.579 157.735 C 598.04 164.696 595.469 171.292 595.046 178.229 C 594.502 187.141 596.702 196.653 595.372 205.411 C 594.422 211.668 591.692 217.9 589.681 223.879 C 587.528 230.283 585.87 237.44 582.881 243.5 C 575.612 258.238 555.489 275.798 540.022 281.136 C 528.926 281.617 516.019 282.537 506.437 276.125 C 492.943 267.096 478.487 254.899 471.305 240.148 C 468.854 235.114 467.61 229.485 465.702 224.223 C 463.372 217.796 460.464 210.873 459.385 204.114 C 458.176 196.538 459.589 187.857 459.176 180.062 C 458.803 173.034 456.646 166.66 455.415 159.815 C 453.682 150.179 455.732 140.012 456.191 130.334 C 457.338 106.134 452.944 81.1578 468.033 60 C 479.915 43.3387 498.677 34.6136 518.372 31.2606 z"/>
<path transform="translate(0,0)" fill="rgb(0,0,0)" d="M 513.055 215.5 C 517.326 214.402 518.956 215.785 523.02 216.675 C 527.401 217.633 528.895 217.866 532.5 215.317 C 537.801 214.629 542.834 216.356 547.332 219.165 C 551.071 221.499 554.763 224.02 555.75 228.5 L 553.5 229.254 C 550.881 227.142 548.362 226.115 545.234 224.922 C 538.645 225.284 531.51 226.721 525 226.466 C 521.081 226.312 512.392 223.852 509.205 224.591 C 505.8 225.381 503.411 229.026 499.5 228.534 L 499.718 226.917 C 501.046 222.108 508.886 217.493 513.055 215.5 z"/>
<path transform="translate(0,0)" fill="rgb(0,0,0)" d="M 570.844 140.374 L 578 141.013 L 578.298 142.143 L 570.11 147.189 L 570.101 148.633 L 574.228 147.5 L 575.518 148.468 L 572.621 150.698 C 572.886 153.229 572.845 154.352 571.13 156.35 L 570.144 157.388 L 570.5 158.194 C 573.653 157.958 576.382 157.809 579.5 158.392 L 578.996 159.5 C 570.421 162.53 561.336 163.825 552.337 162.663 C 549.314 161.921 546.842 161.721 544.5 159.56 C 546.411 157.606 546.292 159.135 548.5 158.747 C 550.214 158.445 552.833 156.766 554.5 156.005 C 556.462 156.784 558.455 157.243 560.5 157.752 C 557.265 153.854 546.346 153.31 541.247 152.399 C 550.641 143.469 558.095 141.314 570.844 140.374 z"/>
<path transform="translate(0,0)" fill="rgb(0,0,0)" d="M 470.822 139.008 C 481.948 138.891 494.475 139.306 504.302 145.291 C 507.299 147.117 509.996 150.104 510.931 153.5 C 509.067 153.759 508.632 154.211 506.887 153 L 506 152.104 L 501.5 156.027 C 498.644 155.968 496.232 156.605 493.5 157.314 C 495.47 157.679 496.756 157.883 498.76 157.532 L 500.299 157.237 C 503.169 157.328 507.846 156.92 510.061 158.5 L 507.5 160.595 C 505.483 161.53 503.367 162.51 501.159 162.876 C 491.283 164.512 481.671 162.291 473.697 156.443 C 476.853 155.814 484.018 158.516 487.401 159.318 L 487.094 158.486 C 486.175 156.975 481.104 151.007 479.696 150.299 C 478.799 149.847 476.115 149.89 475 149.763 L 474.086 148.5 C 477.614 148.109 480.087 148.794 482.906 146.5 C 480.636 143.134 474.434 140.89 470.822 139.008 z"/>
<path transform="translate(0,0)" fill="rgb(255,255,255)" d="M 344.406 371.308 C 356.067 370.362 369.519 372.634 381.364 373.222 C 415.295 374.907 448.569 375.158 481.826 383.224 C 492.49 385.811 503.495 388.432 512.025 395.717 C 522.912 405.014 523.609 414.284 524.682 427.589 C 509.998 413.807 489.855 412.685 470.869 410.523 C 488.288 420.167 507.41 422.704 522.088 437.072 C 524.474 448.928 523.535 460.366 522.794 472.315 C 506.459 462.878 482.468 454.958 463.5 458.362 C 464.105 459.854 463.564 459.4 465.069 459.776 C 485.391 464.863 504.274 470.862 518.925 486.491 C 521.658 497.02 522.064 504.452 517.079 514.5 C 509.708 529.358 494.774 538.266 479.469 543.147 C 446.08 553.795 412.131 545.968 381.853 530.497 C 368.479 523.04 355.259 513.025 346.803 500.059 C 341.661 492.174 338.058 482.865 334.21 474.3 C 337.562 468.231 345.58 462.016 350.5 456.994 L 394.965 413.045 L 430.656 382.654 C 412.534 388.49 398.539 400.483 384.322 412.79 C 363.354 430.94 344.072 451.355 322.7 468.964 C 316.023 474.465 308.131 478.747 300.977 483.626 L 266.888 507.926 C 264.167 500.632 261.545 493.354 260.299 485.644 C 256.387 461.445 266.052 431.432 280.39 411.896 C 295.851 390.832 318.48 375.364 344.406 371.308 z"/>
<path transform="translate(0,0)" fill="rgb(255,255,255)" d="M 693.578 369.41 C 698.579 368.554 705.183 368.672 710.19 369.419 C 736.075 373.282 763.334 387.426 779.05 408.608 C 802.487 440.196 802.978 475.254 797.51 512.556 L 763.203 487.722 C 751.852 480.192 739.138 474.123 728.548 465.613 C 721.39 459.86 714.864 452.858 708.241 446.484 C 683.009 422.205 656.059 393.634 621.972 382.773 C 630.307 393.001 644.119 400.776 654.44 409.118 C 670.011 421.703 683.64 436.11 697.697 450.296 C 704.502 457.165 712.162 463.761 717.785 471.65 C 711.078 488.979 704.266 501.959 691.336 515.403 L 674.527 528.5 C 648.983 544.599 617.289 552.462 587.355 545.545 C 577.71 543.316 568.463 540.473 560 535.154 C 549.29 528.422 540.278 516.736 537.73 504.28 C 536.51 498.318 535.285 492.171 538.894 487.122 C 551.497 469.487 581.159 463.234 601.192 459.717 C 576.415 455.721 558.784 461.585 536.396 471.1 C 534.908 460.882 534.963 450.886 535.037 440.597 C 544.864 422.207 571.175 420.134 588.414 411.978 C 569.77 410.684 549.041 415.828 534.253 427.124 C 534.797 416.793 534.439 407.847 541.49 399.5 C 560.093 377.479 622.074 375.134 649.562 373.089 L 693.578 369.41 z"/>
</svg>