<?xml version="1.0" encoding="iso-8859-1"?>
<!-- Generator: Adobe Illustrator 19.0.0, SVG Export Plug-In . SVG Version: 6.00 Build 0)  -->
<!-- License: CC0. Made by SVG Repo: https://www.svgrepo.com/svg/130114/rope -->
<svg version="1.1" id="Layer_1" xmlns="http://www.w3.org/2000/svg" xmlns:xlink="http://www.w3.org/1999/xlink" x="0px" y="0px"
	 viewBox="0 0 512.002 512.002" style="enable-background:new 0 0 512.002 512.002;" xml:space="preserve">
<g>
	<g>
		<g>
			<rect x="31.856" y="496.323" width="64.043" height="15.679"/>
			<rect x="416.1" width="64.043" height="15.679"/>
			<path d="M71.716,240.808v-24.834H56.037v24.834c-22.675,3.754-40.025,23.489-40.025,47.213c0,14.169,6.194,26.913,16.009,35.686
				v164.278h63.71V323.707c9.816-8.772,16.01-21.517,16.01-35.686C111.742,264.298,94.392,244.562,71.716,240.808z M80.053,472.306
				H47.701v-16.342h32.352V472.306z M80.054,440.285h-0.001H47.701V333.066c5.056,1.821,10.501,2.82,16.177,2.82
				c5.676,0,11.121-0.998,16.177-2.819V440.285z M63.876,320.207c-17.747,0-32.186-14.439-32.186-32.187
				s14.439-32.186,32.186-32.186c17.748,0,32.187,14.438,32.187,32.186S81.625,320.207,63.876,320.207z"/>
			<path d="M479.98,188.294V24.016h-63.71v164.278c-9.816,8.772-16.01,21.517-16.01,35.686c0,23.722,17.351,43.459,40.026,47.213
				v24.834h15.679v-24.834c22.675-3.754,40.025-23.489,40.025-47.213C495.991,209.811,489.796,197.066,479.98,188.294z
				 M431.949,39.695h32.352v16.342h-32.352V39.695z M431.948,71.715h0.001h32.352v107.219c-5.056-1.822-10.501-2.82-16.177-2.82
				s-11.121,0.998-16.177,2.819V71.715z M448.126,256.165c-17.749,0-32.187-14.438-32.187-32.186
				c0-17.749,14.438-32.187,32.187-32.187c17.747,0,32.186,14.438,32.186,32.187C480.312,241.727,465.872,256.165,448.126,256.165z"
				/>
			<rect x="56.037" y="191.963" width="15.679" height="16.009"/>
			<rect x="440.287" y="304.036" width="15.679" height="16.01"/>
			<path d="M440.289,472.14h-0.002c0,13.333-10.848,24.181-24.182,24.181c-13.333,0-24.181-10.848-24.181-24.181V320.042
				c0-21.979-17.88-39.861-39.86-39.861c-21.979,0-39.86,17.881-39.86,39.861v8.005c0,13.333-10.848,24.181-24.182,24.181
				c-13.333,0-24.181-10.848-24.181-24.181V103.901c0-21.979-17.88-39.86-39.86-39.86c-21.979,0-39.861,17.88-39.861,39.86v96.062
				c0,13.333-10.848,24.181-24.181,24.181c-13.333,0-24.181-10.848-24.181-24.181V39.861C135.758,17.882,117.877,0,95.898,0
				C73.919,0,56.037,17.882,56.037,39.861v144.093h15.679V39.861c0-13.334,10.848-24.182,24.182-24.182
				c13.333,0,24.181,10.848,24.181,24.182v160.103c0,21.979,17.88,39.86,39.86,39.86c21.979,0,39.86-17.88,39.86-39.86v-96.063
				c0-13.333,10.848-24.181,24.182-24.181c13.333,0,24.181,10.848,24.181,24.181v224.146c0,21.979,17.88,39.86,39.86,39.86
				c21.979,0,39.861-17.88,39.861-39.86v-8.005c0-13.334,10.848-24.182,24.181-24.182c13.333,0,24.181,10.848,24.181,24.182v152.099
				c0,21.979,17.881,39.86,39.86,39.86c21.979,0,39.861-17.88,39.861-39.86V328.047h-15.679V472.14z"/>
		</g>
	</g>
</g>
</svg>
