<svg fill="currentColor" height="200px" width="200px" version="1.1" id="Layer_1" xmlns="http://www.w3.org/2000/svg" xmlns:xlink="http://www.w3.org/1999/xlink" viewBox="0 0 512 512" xml:space="preserve"><g id="SVGRepo_bgCarrier" stroke-width="0"></g><g id="SVGRepo_tracerCarrier" stroke-linecap="round" stroke-linejoin="round"></g><g id="SVGRepo_iconCarrier"> <g> <g> <path d="M490.667,394.667h-27.285l-10.944-32.789C487.573,344.405,512,308.501,512,266.667c0-51.499-36.693-94.592-85.333-104.512 v-47.851c36.715-9.536,64-42.645,64-82.304c0-11.776-9.536-21.333-21.333-21.333S448,20.224,448,32 c0,16.171-9.131,30.08-22.4,37.333c-2.432-9.131-10.368-16-20.267-16c-11.797,0-21.333,9.557-21.333,21.333v87.488 c-42.965,8.768-76.309,43.52-83.563,87.019l-158.955,35.328L94.784,160h11.883c11.797,0,21.333-9.536,21.333-21.333 c0-11.776-9.536-21.333-21.333-21.333H21.333C9.536,117.333,0,126.891,0,138.667C0,150.464,9.536,160,21.333,160h27.883 l56.683,151.147l-16.704,83.52H21.333C9.536,394.667,0,404.224,0,416v64c0,11.797,9.536,21.333,21.333,21.333h469.333 c11.797,0,21.333-9.536,21.333-21.333v-64C512,404.224,502.464,394.667,490.667,394.667z M132.693,394.667l13.504-67.52 l155.989-34.667c11.627,46.315,53.291,80.853,103.147,80.853c1.984,0,3.819-0.469,5.781-0.576l7.296,21.909H132.693z"></path> </g> </g> </g></svg>