<svg fill="#000000" version="1.1" id="Layer_1" xmlns="http://www.w3.org/2000/svg" xmlns:xlink="http://www.w3.org/1999/xlink" viewBox="78 110 100 130" xml:space="preserve">
    <!-- Head -->
    <path d="M115.328,138.972c0,6.939,5.587,12.526,12.526,12.526s12.526-5.646,12.526-12.526c0-6.939-5.646-12.526-12.526-12.526 C120.974,126.446,115.328,132.033,115.328,138.972z" />
    
    <!-- Body -->
    <path d="M78.691,201.838c0-2.117,0.941-3.94,2.411-5.175 c0.176-0.235,0.353-0.47,0.529-0.647l14.173-13.232l9.115-19.701c2.529-5.057,6.116-8.174,11.526-8.174h23.112 c5.469,0,8.998,3.176,11.526,8.174l9.115,19.701l14.173,13.173c0.176,0.235,0.353,0.412,0.529,0.647 c1.47,1.294,2.411,3.117,2.411,5.175c0,3.823-3.058,6.822-6.822,6.822c-2.235,0-4.175-1.117-5.41-2.705 c-0.059-0.118-0.176-0.176-0.294-0.294l-14.996-13.996c-0.529-0.529-1.059-1.117-1.353-1.882l-4.763-10.233l0.235,18.113 l20.936,11.468c3.823,2.058,5.587,6.587,4.234,10.703c-1.411,4.175-5.528,6.704-9.821,6.116l-31.345-8.174l-31.345,8.174 c-4.352,0.588-8.468-1.999-9.821-6.116c-1.353-4.058,0.412-8.645,4.234-10.703l20.936-11.468l0.235-18.113l-4.763,10.233 c-0.294,0.647-0.823,1.353-1.353,1.882l-14.996,13.996c-0.059,0.118-0.176,0.176-0.294,0.294c-1.235,1.647-3.176,2.705-5.41,2.705 C81.573,208.601,78.573,205.543,78.691,201.838z" />
</svg>